%
M48
M72
T01C0.01200
T02C0.03200
T03C0.04000
T04C0.12598
%
T01
X196011Y25136
X189761Y25136
X207261Y31386
X184761Y33886
X179761Y48886
T02
X136011Y42636
X106011Y42636
X91011Y42636
X81011Y42636
T03
X46011Y12636
X56011Y12636
X66011Y12636
X76011Y12636
X86011Y12636
X96011Y12636
X106011Y12636
X116011Y12636
X126011Y12636
X136011Y12636
X146011Y12636
X156011Y12636
X56011Y72636
X66011Y72636
X76011Y72636
X86011Y72636
X96011Y72636
X106011Y72636
X116011Y72636
X126011Y72636
X136011Y72636
X146011Y72636
X156011Y72636
X46011Y72636
T04
X148808Y33078
X57793Y42278
M30
