G75*
%MOIN*%
%OFA0B0*%
%FSLAX25Y25*%
%IPPOS*%
%LPD*%
%AMOC8*
5,1,8,0,0,1.08239X$1,22.5*
%
%ADD10C,0.00000*%
%ADD11R,0.03937X0.09646*%
%ADD12R,0.09646X0.03937*%
%ADD13C,0.06000*%
%ADD14OC8,0.05600*%
%ADD15OC8,0.05200*%
%ADD16C,0.01000*%
%ADD17C,0.02400*%
%ADD18C,0.01600*%
D10*
X0035742Y0004543D02*
X0225421Y0004380D01*
X0225257Y0083418D01*
X0036116Y0083287D01*
X0035913Y0066626D01*
X0001142Y0066829D01*
X0001000Y0018636D01*
X0035777Y0018636D01*
X0035742Y0004543D01*
X0142509Y0033078D02*
X0142511Y0033236D01*
X0142517Y0033394D01*
X0142527Y0033552D01*
X0142541Y0033710D01*
X0142559Y0033867D01*
X0142580Y0034024D01*
X0142606Y0034180D01*
X0142636Y0034336D01*
X0142669Y0034491D01*
X0142707Y0034644D01*
X0142748Y0034797D01*
X0142793Y0034949D01*
X0142842Y0035100D01*
X0142895Y0035249D01*
X0142951Y0035397D01*
X0143011Y0035543D01*
X0143075Y0035688D01*
X0143143Y0035831D01*
X0143214Y0035973D01*
X0143288Y0036113D01*
X0143366Y0036250D01*
X0143448Y0036386D01*
X0143532Y0036520D01*
X0143621Y0036651D01*
X0143712Y0036780D01*
X0143807Y0036907D01*
X0143904Y0037032D01*
X0144005Y0037154D01*
X0144109Y0037273D01*
X0144216Y0037390D01*
X0144326Y0037504D01*
X0144439Y0037615D01*
X0144554Y0037724D01*
X0144672Y0037829D01*
X0144793Y0037931D01*
X0144916Y0038031D01*
X0145042Y0038127D01*
X0145170Y0038220D01*
X0145300Y0038310D01*
X0145433Y0038396D01*
X0145568Y0038480D01*
X0145704Y0038559D01*
X0145843Y0038636D01*
X0145984Y0038708D01*
X0146126Y0038778D01*
X0146270Y0038843D01*
X0146416Y0038905D01*
X0146563Y0038963D01*
X0146712Y0039018D01*
X0146862Y0039069D01*
X0147013Y0039116D01*
X0147165Y0039159D01*
X0147318Y0039198D01*
X0147473Y0039234D01*
X0147628Y0039265D01*
X0147784Y0039293D01*
X0147940Y0039317D01*
X0148097Y0039337D01*
X0148255Y0039353D01*
X0148412Y0039365D01*
X0148571Y0039373D01*
X0148729Y0039377D01*
X0148887Y0039377D01*
X0149045Y0039373D01*
X0149204Y0039365D01*
X0149361Y0039353D01*
X0149519Y0039337D01*
X0149676Y0039317D01*
X0149832Y0039293D01*
X0149988Y0039265D01*
X0150143Y0039234D01*
X0150298Y0039198D01*
X0150451Y0039159D01*
X0150603Y0039116D01*
X0150754Y0039069D01*
X0150904Y0039018D01*
X0151053Y0038963D01*
X0151200Y0038905D01*
X0151346Y0038843D01*
X0151490Y0038778D01*
X0151632Y0038708D01*
X0151773Y0038636D01*
X0151912Y0038559D01*
X0152048Y0038480D01*
X0152183Y0038396D01*
X0152316Y0038310D01*
X0152446Y0038220D01*
X0152574Y0038127D01*
X0152700Y0038031D01*
X0152823Y0037931D01*
X0152944Y0037829D01*
X0153062Y0037724D01*
X0153177Y0037615D01*
X0153290Y0037504D01*
X0153400Y0037390D01*
X0153507Y0037273D01*
X0153611Y0037154D01*
X0153712Y0037032D01*
X0153809Y0036907D01*
X0153904Y0036780D01*
X0153995Y0036651D01*
X0154084Y0036520D01*
X0154168Y0036386D01*
X0154250Y0036250D01*
X0154328Y0036113D01*
X0154402Y0035973D01*
X0154473Y0035831D01*
X0154541Y0035688D01*
X0154605Y0035543D01*
X0154665Y0035397D01*
X0154721Y0035249D01*
X0154774Y0035100D01*
X0154823Y0034949D01*
X0154868Y0034797D01*
X0154909Y0034644D01*
X0154947Y0034491D01*
X0154980Y0034336D01*
X0155010Y0034180D01*
X0155036Y0034024D01*
X0155057Y0033867D01*
X0155075Y0033710D01*
X0155089Y0033552D01*
X0155099Y0033394D01*
X0155105Y0033236D01*
X0155107Y0033078D01*
X0155105Y0032920D01*
X0155099Y0032762D01*
X0155089Y0032604D01*
X0155075Y0032446D01*
X0155057Y0032289D01*
X0155036Y0032132D01*
X0155010Y0031976D01*
X0154980Y0031820D01*
X0154947Y0031665D01*
X0154909Y0031512D01*
X0154868Y0031359D01*
X0154823Y0031207D01*
X0154774Y0031056D01*
X0154721Y0030907D01*
X0154665Y0030759D01*
X0154605Y0030613D01*
X0154541Y0030468D01*
X0154473Y0030325D01*
X0154402Y0030183D01*
X0154328Y0030043D01*
X0154250Y0029906D01*
X0154168Y0029770D01*
X0154084Y0029636D01*
X0153995Y0029505D01*
X0153904Y0029376D01*
X0153809Y0029249D01*
X0153712Y0029124D01*
X0153611Y0029002D01*
X0153507Y0028883D01*
X0153400Y0028766D01*
X0153290Y0028652D01*
X0153177Y0028541D01*
X0153062Y0028432D01*
X0152944Y0028327D01*
X0152823Y0028225D01*
X0152700Y0028125D01*
X0152574Y0028029D01*
X0152446Y0027936D01*
X0152316Y0027846D01*
X0152183Y0027760D01*
X0152048Y0027676D01*
X0151912Y0027597D01*
X0151773Y0027520D01*
X0151632Y0027448D01*
X0151490Y0027378D01*
X0151346Y0027313D01*
X0151200Y0027251D01*
X0151053Y0027193D01*
X0150904Y0027138D01*
X0150754Y0027087D01*
X0150603Y0027040D01*
X0150451Y0026997D01*
X0150298Y0026958D01*
X0150143Y0026922D01*
X0149988Y0026891D01*
X0149832Y0026863D01*
X0149676Y0026839D01*
X0149519Y0026819D01*
X0149361Y0026803D01*
X0149204Y0026791D01*
X0149045Y0026783D01*
X0148887Y0026779D01*
X0148729Y0026779D01*
X0148571Y0026783D01*
X0148412Y0026791D01*
X0148255Y0026803D01*
X0148097Y0026819D01*
X0147940Y0026839D01*
X0147784Y0026863D01*
X0147628Y0026891D01*
X0147473Y0026922D01*
X0147318Y0026958D01*
X0147165Y0026997D01*
X0147013Y0027040D01*
X0146862Y0027087D01*
X0146712Y0027138D01*
X0146563Y0027193D01*
X0146416Y0027251D01*
X0146270Y0027313D01*
X0146126Y0027378D01*
X0145984Y0027448D01*
X0145843Y0027520D01*
X0145704Y0027597D01*
X0145568Y0027676D01*
X0145433Y0027760D01*
X0145300Y0027846D01*
X0145170Y0027936D01*
X0145042Y0028029D01*
X0144916Y0028125D01*
X0144793Y0028225D01*
X0144672Y0028327D01*
X0144554Y0028432D01*
X0144439Y0028541D01*
X0144326Y0028652D01*
X0144216Y0028766D01*
X0144109Y0028883D01*
X0144005Y0029002D01*
X0143904Y0029124D01*
X0143807Y0029249D01*
X0143712Y0029376D01*
X0143621Y0029505D01*
X0143532Y0029636D01*
X0143448Y0029770D01*
X0143366Y0029906D01*
X0143288Y0030043D01*
X0143214Y0030183D01*
X0143143Y0030325D01*
X0143075Y0030468D01*
X0143011Y0030613D01*
X0142951Y0030759D01*
X0142895Y0030907D01*
X0142842Y0031056D01*
X0142793Y0031207D01*
X0142748Y0031359D01*
X0142707Y0031512D01*
X0142669Y0031665D01*
X0142636Y0031820D01*
X0142606Y0031976D01*
X0142580Y0032132D01*
X0142559Y0032289D01*
X0142541Y0032446D01*
X0142527Y0032604D01*
X0142517Y0032762D01*
X0142511Y0032920D01*
X0142509Y0033078D01*
X0051494Y0042278D02*
X0051496Y0042436D01*
X0051502Y0042594D01*
X0051512Y0042752D01*
X0051526Y0042910D01*
X0051544Y0043067D01*
X0051565Y0043224D01*
X0051591Y0043380D01*
X0051621Y0043536D01*
X0051654Y0043691D01*
X0051692Y0043844D01*
X0051733Y0043997D01*
X0051778Y0044149D01*
X0051827Y0044300D01*
X0051880Y0044449D01*
X0051936Y0044597D01*
X0051996Y0044743D01*
X0052060Y0044888D01*
X0052128Y0045031D01*
X0052199Y0045173D01*
X0052273Y0045313D01*
X0052351Y0045450D01*
X0052433Y0045586D01*
X0052517Y0045720D01*
X0052606Y0045851D01*
X0052697Y0045980D01*
X0052792Y0046107D01*
X0052889Y0046232D01*
X0052990Y0046354D01*
X0053094Y0046473D01*
X0053201Y0046590D01*
X0053311Y0046704D01*
X0053424Y0046815D01*
X0053539Y0046924D01*
X0053657Y0047029D01*
X0053778Y0047131D01*
X0053901Y0047231D01*
X0054027Y0047327D01*
X0054155Y0047420D01*
X0054285Y0047510D01*
X0054418Y0047596D01*
X0054553Y0047680D01*
X0054689Y0047759D01*
X0054828Y0047836D01*
X0054969Y0047908D01*
X0055111Y0047978D01*
X0055255Y0048043D01*
X0055401Y0048105D01*
X0055548Y0048163D01*
X0055697Y0048218D01*
X0055847Y0048269D01*
X0055998Y0048316D01*
X0056150Y0048359D01*
X0056303Y0048398D01*
X0056458Y0048434D01*
X0056613Y0048465D01*
X0056769Y0048493D01*
X0056925Y0048517D01*
X0057082Y0048537D01*
X0057240Y0048553D01*
X0057397Y0048565D01*
X0057556Y0048573D01*
X0057714Y0048577D01*
X0057872Y0048577D01*
X0058030Y0048573D01*
X0058189Y0048565D01*
X0058346Y0048553D01*
X0058504Y0048537D01*
X0058661Y0048517D01*
X0058817Y0048493D01*
X0058973Y0048465D01*
X0059128Y0048434D01*
X0059283Y0048398D01*
X0059436Y0048359D01*
X0059588Y0048316D01*
X0059739Y0048269D01*
X0059889Y0048218D01*
X0060038Y0048163D01*
X0060185Y0048105D01*
X0060331Y0048043D01*
X0060475Y0047978D01*
X0060617Y0047908D01*
X0060758Y0047836D01*
X0060897Y0047759D01*
X0061033Y0047680D01*
X0061168Y0047596D01*
X0061301Y0047510D01*
X0061431Y0047420D01*
X0061559Y0047327D01*
X0061685Y0047231D01*
X0061808Y0047131D01*
X0061929Y0047029D01*
X0062047Y0046924D01*
X0062162Y0046815D01*
X0062275Y0046704D01*
X0062385Y0046590D01*
X0062492Y0046473D01*
X0062596Y0046354D01*
X0062697Y0046232D01*
X0062794Y0046107D01*
X0062889Y0045980D01*
X0062980Y0045851D01*
X0063069Y0045720D01*
X0063153Y0045586D01*
X0063235Y0045450D01*
X0063313Y0045313D01*
X0063387Y0045173D01*
X0063458Y0045031D01*
X0063526Y0044888D01*
X0063590Y0044743D01*
X0063650Y0044597D01*
X0063706Y0044449D01*
X0063759Y0044300D01*
X0063808Y0044149D01*
X0063853Y0043997D01*
X0063894Y0043844D01*
X0063932Y0043691D01*
X0063965Y0043536D01*
X0063995Y0043380D01*
X0064021Y0043224D01*
X0064042Y0043067D01*
X0064060Y0042910D01*
X0064074Y0042752D01*
X0064084Y0042594D01*
X0064090Y0042436D01*
X0064092Y0042278D01*
X0064090Y0042120D01*
X0064084Y0041962D01*
X0064074Y0041804D01*
X0064060Y0041646D01*
X0064042Y0041489D01*
X0064021Y0041332D01*
X0063995Y0041176D01*
X0063965Y0041020D01*
X0063932Y0040865D01*
X0063894Y0040712D01*
X0063853Y0040559D01*
X0063808Y0040407D01*
X0063759Y0040256D01*
X0063706Y0040107D01*
X0063650Y0039959D01*
X0063590Y0039813D01*
X0063526Y0039668D01*
X0063458Y0039525D01*
X0063387Y0039383D01*
X0063313Y0039243D01*
X0063235Y0039106D01*
X0063153Y0038970D01*
X0063069Y0038836D01*
X0062980Y0038705D01*
X0062889Y0038576D01*
X0062794Y0038449D01*
X0062697Y0038324D01*
X0062596Y0038202D01*
X0062492Y0038083D01*
X0062385Y0037966D01*
X0062275Y0037852D01*
X0062162Y0037741D01*
X0062047Y0037632D01*
X0061929Y0037527D01*
X0061808Y0037425D01*
X0061685Y0037325D01*
X0061559Y0037229D01*
X0061431Y0037136D01*
X0061301Y0037046D01*
X0061168Y0036960D01*
X0061033Y0036876D01*
X0060897Y0036797D01*
X0060758Y0036720D01*
X0060617Y0036648D01*
X0060475Y0036578D01*
X0060331Y0036513D01*
X0060185Y0036451D01*
X0060038Y0036393D01*
X0059889Y0036338D01*
X0059739Y0036287D01*
X0059588Y0036240D01*
X0059436Y0036197D01*
X0059283Y0036158D01*
X0059128Y0036122D01*
X0058973Y0036091D01*
X0058817Y0036063D01*
X0058661Y0036039D01*
X0058504Y0036019D01*
X0058346Y0036003D01*
X0058189Y0035991D01*
X0058030Y0035983D01*
X0057872Y0035979D01*
X0057714Y0035979D01*
X0057556Y0035983D01*
X0057397Y0035991D01*
X0057240Y0036003D01*
X0057082Y0036019D01*
X0056925Y0036039D01*
X0056769Y0036063D01*
X0056613Y0036091D01*
X0056458Y0036122D01*
X0056303Y0036158D01*
X0056150Y0036197D01*
X0055998Y0036240D01*
X0055847Y0036287D01*
X0055697Y0036338D01*
X0055548Y0036393D01*
X0055401Y0036451D01*
X0055255Y0036513D01*
X0055111Y0036578D01*
X0054969Y0036648D01*
X0054828Y0036720D01*
X0054689Y0036797D01*
X0054553Y0036876D01*
X0054418Y0036960D01*
X0054285Y0037046D01*
X0054155Y0037136D01*
X0054027Y0037229D01*
X0053901Y0037325D01*
X0053778Y0037425D01*
X0053657Y0037527D01*
X0053539Y0037632D01*
X0053424Y0037741D01*
X0053311Y0037852D01*
X0053201Y0037966D01*
X0053094Y0038083D01*
X0052990Y0038202D01*
X0052889Y0038324D01*
X0052792Y0038449D01*
X0052697Y0038576D01*
X0052606Y0038705D01*
X0052517Y0038836D01*
X0052433Y0038970D01*
X0052351Y0039106D01*
X0052273Y0039243D01*
X0052199Y0039383D01*
X0052128Y0039525D01*
X0052060Y0039668D01*
X0051996Y0039813D01*
X0051936Y0039959D01*
X0051880Y0040107D01*
X0051827Y0040256D01*
X0051778Y0040407D01*
X0051733Y0040559D01*
X0051692Y0040712D01*
X0051654Y0040865D01*
X0051621Y0041020D01*
X0051591Y0041176D01*
X0051565Y0041332D01*
X0051544Y0041489D01*
X0051526Y0041646D01*
X0051512Y0041804D01*
X0051502Y0041962D01*
X0051496Y0042120D01*
X0051494Y0042278D01*
D11*
X0180578Y0018030D03*
X0186089Y0018030D03*
X0191601Y0018030D03*
X0197113Y0018030D03*
X0202625Y0018030D03*
X0208137Y0018030D03*
X0213649Y0018030D03*
X0219160Y0018030D03*
X0219160Y0067242D03*
X0213649Y0067242D03*
X0208137Y0067242D03*
X0202625Y0067242D03*
X0197113Y0067242D03*
X0191601Y0067242D03*
X0186089Y0067242D03*
X0180578Y0067242D03*
D12*
X0171719Y0061927D03*
X0171719Y0056415D03*
X0171719Y0050904D03*
X0171719Y0045392D03*
X0171719Y0039880D03*
X0171719Y0034368D03*
X0171719Y0028856D03*
X0171719Y0023345D03*
D13*
X0156011Y0015636D02*
X0156011Y0009636D01*
X0146011Y0009636D02*
X0146011Y0015636D01*
X0136011Y0015636D02*
X0136011Y0009636D01*
X0126011Y0009636D02*
X0126011Y0015636D01*
X0116011Y0015636D02*
X0116011Y0009636D01*
X0106011Y0009636D02*
X0106011Y0015636D01*
X0096011Y0015636D02*
X0096011Y0009636D01*
X0086011Y0009636D02*
X0086011Y0015636D01*
X0076011Y0015636D02*
X0076011Y0009636D01*
X0066011Y0009636D02*
X0066011Y0015636D01*
X0056011Y0015636D02*
X0056011Y0009636D01*
X0046011Y0009636D02*
X0046011Y0015636D01*
X0046011Y0069636D02*
X0046011Y0075636D01*
X0056011Y0075636D02*
X0056011Y0069636D01*
X0066011Y0069636D02*
X0066011Y0075636D01*
X0076011Y0075636D02*
X0076011Y0069636D01*
X0086011Y0069636D02*
X0086011Y0075636D01*
X0096011Y0075636D02*
X0096011Y0069636D01*
X0106011Y0069636D02*
X0106011Y0075636D01*
X0116011Y0075636D02*
X0116011Y0069636D01*
X0126011Y0069636D02*
X0126011Y0075636D01*
X0136011Y0075636D02*
X0136011Y0069636D01*
X0146011Y0069636D02*
X0146011Y0075636D01*
X0156011Y0075636D02*
X0156011Y0069636D01*
D14*
X0091011Y0042636D03*
X0081011Y0042636D03*
D15*
X0106011Y0042636D03*
X0136011Y0042636D03*
D16*
X0136011Y0037636D01*
X0086011Y0037636D01*
X0091011Y0042636D01*
X0086011Y0037636D02*
X0076011Y0027636D01*
X0076011Y0052636D01*
X0056011Y0072636D01*
X0076011Y0072636D02*
X0076011Y0078062D01*
X0078110Y0080183D01*
X0084713Y0080220D01*
X0177062Y0080235D01*
X0184761Y0072636D01*
X0184761Y0068886D01*
X0186011Y0067636D01*
X0186089Y0067242D01*
X0187261Y0067636D01*
X0191011Y0067636D01*
X0191601Y0067242D01*
X0181011Y0066386D02*
X0180578Y0067242D01*
X0179761Y0066386D01*
X0164761Y0066386D01*
X0164761Y0023886D01*
X0171011Y0023886D01*
X0171719Y0023345D01*
X0164761Y0023886D02*
X0136011Y0023886D01*
X0136011Y0037636D01*
X0179761Y0048886D02*
X0179761Y0018886D01*
X0180578Y0018030D01*
X0184761Y0020136D02*
X0186011Y0018886D01*
X0186089Y0018030D01*
X0189761Y0020136D02*
X0191011Y0018886D01*
X0191601Y0018030D01*
X0196011Y0018886D02*
X0197113Y0018030D01*
X0196011Y0018886D02*
X0196011Y0025136D01*
X0189761Y0025136D02*
X0189761Y0020136D01*
X0184761Y0020136D02*
X0184761Y0033886D01*
X0207261Y0031386D02*
X0207261Y0066386D01*
X0208137Y0067242D01*
X0201011Y0042636D02*
X0181011Y0062636D01*
X0181011Y0066386D01*
X0201011Y0042636D02*
X0201011Y0020136D01*
X0202261Y0018886D01*
X0202625Y0018030D01*
X0203511Y0017636D01*
X0203511Y0012636D01*
X0204761Y0011386D01*
X0213511Y0011386D01*
X0213511Y0017636D01*
X0213649Y0018030D01*
X0214761Y0017636D01*
X0218511Y0017636D01*
X0219160Y0018030D01*
X0209761Y0020136D02*
X0209761Y0023886D01*
X0211011Y0025136D01*
X0223511Y0025136D01*
X0223511Y0012636D01*
X0219761Y0008886D01*
X0161011Y0008886D01*
X0161011Y0017636D01*
X0158511Y0020136D01*
X0087539Y0020161D01*
X0087539Y0020136D01*
X0085991Y0018593D01*
X0086011Y0012636D01*
X0076011Y0012636D02*
X0076011Y0027636D01*
X0208137Y0018030D02*
X0208511Y0018886D01*
X0209761Y0020136D01*
D17*
X0196011Y0025136D03*
X0189761Y0025136D03*
X0207261Y0031386D03*
X0184761Y0033886D03*
X0179761Y0048886D03*
D18*
X0182761Y0048788D02*
X0204961Y0048788D01*
X0204961Y0047190D02*
X0182305Y0047190D01*
X0182304Y0047187D02*
X0182761Y0048289D01*
X0182761Y0049483D01*
X0182304Y0050585D01*
X0181460Y0051429D01*
X0180357Y0051886D01*
X0179164Y0051886D01*
X0178342Y0051545D01*
X0178342Y0053618D01*
X0178300Y0053660D01*
X0178342Y0053701D01*
X0178342Y0059130D01*
X0178300Y0059171D01*
X0178342Y0059213D01*
X0178342Y0060627D01*
X0178372Y0060619D01*
X0180393Y0060619D01*
X0180393Y0067058D01*
X0176809Y0067058D01*
X0176809Y0065696D01*
X0166151Y0065696D01*
X0165097Y0064641D01*
X0165097Y0059213D01*
X0165138Y0059171D01*
X0165097Y0059130D01*
X0165097Y0053701D01*
X0165138Y0053660D01*
X0165097Y0053618D01*
X0165097Y0048190D01*
X0165138Y0048148D01*
X0165097Y0048106D01*
X0165097Y0042678D01*
X0165138Y0042636D01*
X0165097Y0042594D01*
X0165097Y0037166D01*
X0165138Y0037124D01*
X0165097Y0037082D01*
X0165097Y0031654D01*
X0165138Y0031612D01*
X0165097Y0031570D01*
X0165097Y0026142D01*
X0165224Y0026015D01*
X0165219Y0026008D01*
X0165097Y0025550D01*
X0165097Y0023529D01*
X0171535Y0023529D01*
X0171535Y0023160D01*
X0171904Y0023160D01*
X0171904Y0019576D01*
X0176779Y0019576D01*
X0176809Y0019584D01*
X0176809Y0012461D01*
X0177864Y0011407D01*
X0183292Y0011407D01*
X0183334Y0011449D01*
X0183375Y0011407D01*
X0188804Y0011407D01*
X0188845Y0011449D01*
X0188887Y0011407D01*
X0194315Y0011407D01*
X0194357Y0011449D01*
X0194399Y0011407D01*
X0199827Y0011407D01*
X0199954Y0011534D01*
X0199962Y0011529D01*
X0200419Y0011407D01*
X0202441Y0011407D01*
X0202441Y0017845D01*
X0202809Y0017845D01*
X0202809Y0011407D01*
X0204830Y0011407D01*
X0205288Y0011529D01*
X0205296Y0011534D01*
X0205423Y0011407D01*
X0210851Y0011407D01*
X0210978Y0011534D01*
X0210985Y0011529D01*
X0211443Y0011407D01*
X0213464Y0011407D01*
X0213464Y0017845D01*
X0213833Y0017845D01*
X0213833Y0011407D01*
X0215854Y0011407D01*
X0216312Y0011529D01*
X0216404Y0011583D01*
X0216497Y0011529D01*
X0216955Y0011407D01*
X0218976Y0011407D01*
X0218976Y0017845D01*
X0219345Y0017845D01*
X0219345Y0011722D01*
X0218808Y0011186D01*
X0163311Y0011186D01*
X0163311Y0018589D01*
X0160138Y0021761D01*
X0159464Y0022436D01*
X0159463Y0022436D01*
X0158505Y0022436D01*
X0088492Y0022461D01*
X0087549Y0022461D01*
X0086587Y0022462D01*
X0086587Y0022461D01*
X0086587Y0022461D01*
X0085914Y0021788D01*
X0085240Y0021115D01*
X0085240Y0021114D01*
X0085239Y0021114D01*
X0085239Y0021091D01*
X0085038Y0020890D01*
X0085031Y0020890D01*
X0084364Y0020219D01*
X0084245Y0020100D01*
X0083292Y0019705D01*
X0081941Y0018355D01*
X0081211Y0016591D01*
X0081211Y0008681D01*
X0081941Y0006917D01*
X0082556Y0006303D01*
X0079468Y0006305D01*
X0079672Y0006509D01*
X0080116Y0007120D01*
X0080459Y0007793D01*
X0080693Y0008512D01*
X0080811Y0009258D01*
X0080811Y0012436D01*
X0076211Y0012436D01*
X0076211Y0012836D01*
X0080811Y0012836D01*
X0080811Y0016014D01*
X0080693Y0016760D01*
X0080459Y0017478D01*
X0080116Y0018152D01*
X0079672Y0018763D01*
X0079138Y0019297D01*
X0078526Y0019741D01*
X0077853Y0020084D01*
X0077135Y0020318D01*
X0076388Y0020436D01*
X0076211Y0020436D01*
X0076211Y0012836D01*
X0075811Y0012836D01*
X0075811Y0020436D01*
X0075633Y0020436D01*
X0074887Y0020318D01*
X0074168Y0020084D01*
X0073495Y0019741D01*
X0072884Y0019297D01*
X0072349Y0018763D01*
X0071905Y0018152D01*
X0071562Y0017478D01*
X0071329Y0016760D01*
X0071211Y0016014D01*
X0071211Y0012836D01*
X0075811Y0012836D01*
X0075811Y0012436D01*
X0071211Y0012436D01*
X0071211Y0009258D01*
X0071329Y0008512D01*
X0071562Y0007793D01*
X0071905Y0007120D01*
X0072349Y0006509D01*
X0072547Y0006311D01*
X0069477Y0006314D01*
X0070080Y0006917D01*
X0070811Y0008681D01*
X0070811Y0016591D01*
X0070080Y0018355D01*
X0068730Y0019705D01*
X0066966Y0020436D01*
X0065056Y0020436D01*
X0063292Y0019705D01*
X0061941Y0018355D01*
X0061211Y0016591D01*
X0061211Y0008681D01*
X0061941Y0006917D01*
X0062538Y0006320D01*
X0059486Y0006323D01*
X0060080Y0006917D01*
X0060811Y0008681D01*
X0060811Y0016591D01*
X0060080Y0018355D01*
X0058730Y0019705D01*
X0056966Y0020436D01*
X0055056Y0020436D01*
X0053292Y0019705D01*
X0051941Y0018355D01*
X0051211Y0016591D01*
X0051211Y0008681D01*
X0051941Y0006917D01*
X0052530Y0006329D01*
X0049494Y0006331D01*
X0050080Y0006917D01*
X0050811Y0008681D01*
X0050811Y0016591D01*
X0050080Y0018355D01*
X0048730Y0019705D01*
X0046966Y0020436D01*
X0045056Y0020436D01*
X0043292Y0019705D01*
X0041941Y0018355D01*
X0041211Y0016591D01*
X0041211Y0008681D01*
X0041941Y0006917D01*
X0042521Y0006337D01*
X0037547Y0006342D01*
X0037575Y0017889D01*
X0037577Y0017891D01*
X0037577Y0018635D01*
X0037579Y0019377D01*
X0037577Y0019379D01*
X0037577Y0019382D01*
X0037050Y0019908D01*
X0036527Y0020434D01*
X0036524Y0020434D01*
X0036523Y0020436D01*
X0036084Y0020436D01*
X0036084Y0064824D01*
X0036637Y0064817D01*
X0036641Y0064822D01*
X0036648Y0064822D01*
X0037175Y0065342D01*
X0037704Y0065859D01*
X0037704Y0065865D01*
X0037709Y0065870D01*
X0037713Y0066610D01*
X0037894Y0081488D01*
X0076192Y0081514D01*
X0075124Y0080436D01*
X0075056Y0080436D01*
X0073292Y0079705D01*
X0071941Y0078355D01*
X0071211Y0076591D01*
X0071211Y0068681D01*
X0071941Y0066917D01*
X0073292Y0065567D01*
X0075056Y0064836D01*
X0076966Y0064836D01*
X0078730Y0065567D01*
X0080080Y0066917D01*
X0080811Y0068681D01*
X0080811Y0076591D01*
X0080270Y0077895D01*
X0081755Y0077904D01*
X0081211Y0076591D01*
X0081211Y0068681D01*
X0081941Y0066917D01*
X0083292Y0065567D01*
X0085056Y0064836D01*
X0086966Y0064836D01*
X0088730Y0065567D01*
X0090080Y0066917D01*
X0090811Y0068681D01*
X0090811Y0076591D01*
X0090260Y0077921D01*
X0091762Y0077921D01*
X0091211Y0076591D01*
X0091211Y0068681D01*
X0091941Y0066917D01*
X0093292Y0065567D01*
X0095056Y0064836D01*
X0096966Y0064836D01*
X0098730Y0065567D01*
X0100080Y0066917D01*
X0100811Y0068681D01*
X0100811Y0076591D01*
X0100259Y0077923D01*
X0101763Y0077923D01*
X0101211Y0076591D01*
X0101211Y0068681D01*
X0101941Y0066917D01*
X0103292Y0065567D01*
X0105056Y0064836D01*
X0106966Y0064836D01*
X0108730Y0065567D01*
X0110080Y0066917D01*
X0110811Y0068681D01*
X0110811Y0076591D01*
X0110258Y0077924D01*
X0111763Y0077925D01*
X0111211Y0076591D01*
X0111211Y0068681D01*
X0111941Y0066917D01*
X0113292Y0065567D01*
X0115056Y0064836D01*
X0116966Y0064836D01*
X0118730Y0065567D01*
X0120080Y0066917D01*
X0120811Y0068681D01*
X0120811Y0076591D01*
X0120258Y0077926D01*
X0121764Y0077926D01*
X0121211Y0076591D01*
X0121211Y0068681D01*
X0121941Y0066917D01*
X0123292Y0065567D01*
X0125056Y0064836D01*
X0126966Y0064836D01*
X0128730Y0065567D01*
X0130080Y0066917D01*
X0130811Y0068681D01*
X0130811Y0076591D01*
X0130257Y0077928D01*
X0131765Y0077928D01*
X0131211Y0076591D01*
X0131211Y0068681D01*
X0131941Y0066917D01*
X0133292Y0065567D01*
X0135056Y0064836D01*
X0136966Y0064836D01*
X0138730Y0065567D01*
X0140080Y0066917D01*
X0140811Y0068681D01*
X0140811Y0076591D01*
X0140256Y0077929D01*
X0141765Y0077930D01*
X0141211Y0076591D01*
X0141211Y0068681D01*
X0141941Y0066917D01*
X0143292Y0065567D01*
X0145056Y0064836D01*
X0146966Y0064836D01*
X0148730Y0065567D01*
X0150080Y0066917D01*
X0150811Y0068681D01*
X0150811Y0076591D01*
X0150255Y0077931D01*
X0151766Y0077931D01*
X0151211Y0076591D01*
X0151211Y0068681D01*
X0151941Y0066917D01*
X0153292Y0065567D01*
X0155056Y0064836D01*
X0156966Y0064836D01*
X0158730Y0065567D01*
X0160080Y0066917D01*
X0160811Y0068681D01*
X0160811Y0076591D01*
X0160255Y0077933D01*
X0176118Y0077935D01*
X0180241Y0073865D01*
X0178372Y0073865D01*
X0177914Y0073742D01*
X0177504Y0073505D01*
X0177169Y0073170D01*
X0176932Y0072760D01*
X0176809Y0072302D01*
X0176809Y0067426D01*
X0180393Y0067426D01*
X0180393Y0067058D01*
X0180762Y0067058D01*
X0180762Y0060619D01*
X0182783Y0060619D01*
X0183241Y0060742D01*
X0183248Y0060746D01*
X0183375Y0060619D01*
X0188804Y0060619D01*
X0188845Y0060661D01*
X0188887Y0060619D01*
X0194315Y0060619D01*
X0194357Y0060661D01*
X0194399Y0060619D01*
X0199827Y0060619D01*
X0199869Y0060661D01*
X0199911Y0060619D01*
X0204961Y0060619D01*
X0204961Y0033329D01*
X0204717Y0033085D01*
X0204261Y0031983D01*
X0204261Y0030789D01*
X0204717Y0029687D01*
X0205561Y0028843D01*
X0206664Y0028386D01*
X0207857Y0028386D01*
X0208960Y0028843D01*
X0209804Y0029687D01*
X0210261Y0030789D01*
X0210261Y0031983D01*
X0209804Y0033085D01*
X0209561Y0033329D01*
X0209561Y0060619D01*
X0210851Y0060619D01*
X0210893Y0060661D01*
X0210934Y0060619D01*
X0216363Y0060619D01*
X0216404Y0060661D01*
X0216446Y0060619D01*
X0221874Y0060619D01*
X0222929Y0061674D01*
X0222929Y0072811D01*
X0221874Y0073865D01*
X0216446Y0073865D01*
X0216404Y0073823D01*
X0216363Y0073865D01*
X0210934Y0073865D01*
X0210893Y0073823D01*
X0210851Y0073865D01*
X0205423Y0073865D01*
X0205381Y0073823D01*
X0205339Y0073865D01*
X0199911Y0073865D01*
X0199869Y0073823D01*
X0199827Y0073865D01*
X0194399Y0073865D01*
X0194357Y0073823D01*
X0194315Y0073865D01*
X0188887Y0073865D01*
X0188845Y0073823D01*
X0188804Y0073865D01*
X0186790Y0073865D01*
X0186382Y0074268D01*
X0185713Y0074936D01*
X0185705Y0074936D01*
X0178968Y0081586D01*
X0223460Y0081617D01*
X0223573Y0027436D01*
X0210058Y0027436D01*
X0208711Y0026089D01*
X0207461Y0024839D01*
X0207461Y0024652D01*
X0205423Y0024652D01*
X0205296Y0024525D01*
X0205288Y0024530D01*
X0204830Y0024652D01*
X0202809Y0024652D01*
X0202809Y0018214D01*
X0202441Y0018214D01*
X0202441Y0024652D01*
X0200419Y0024652D01*
X0199962Y0024530D01*
X0199954Y0024525D01*
X0199827Y0024652D01*
X0199011Y0024652D01*
X0199011Y0025733D01*
X0198554Y0026835D01*
X0197710Y0027679D01*
X0196607Y0028136D01*
X0195414Y0028136D01*
X0194311Y0027679D01*
X0193467Y0026835D01*
X0193011Y0025733D01*
X0193011Y0024652D01*
X0192761Y0024652D01*
X0192761Y0025733D01*
X0192304Y0026835D01*
X0191460Y0027679D01*
X0190357Y0028136D01*
X0189164Y0028136D01*
X0188061Y0027679D01*
X0187217Y0026835D01*
X0187061Y0026457D01*
X0187061Y0031943D01*
X0187304Y0032187D01*
X0187761Y0033289D01*
X0187761Y0034483D01*
X0187304Y0035585D01*
X0186460Y0036429D01*
X0185357Y0036886D01*
X0184164Y0036886D01*
X0183061Y0036429D01*
X0182217Y0035585D01*
X0182061Y0035207D01*
X0182061Y0046943D01*
X0182304Y0047187D01*
X0182061Y0045591D02*
X0204961Y0045591D01*
X0204961Y0043993D02*
X0182061Y0043993D01*
X0182061Y0042394D02*
X0204961Y0042394D01*
X0204961Y0040796D02*
X0182061Y0040796D01*
X0182061Y0039197D02*
X0204961Y0039197D01*
X0204961Y0037599D02*
X0182061Y0037599D01*
X0182061Y0036000D02*
X0182632Y0036000D01*
X0186889Y0036000D02*
X0204961Y0036000D01*
X0204961Y0034402D02*
X0187761Y0034402D01*
X0187559Y0032803D02*
X0204601Y0032803D01*
X0204261Y0031205D02*
X0187061Y0031205D01*
X0187061Y0029606D02*
X0204798Y0029606D01*
X0209724Y0029606D02*
X0223569Y0029606D01*
X0223572Y0028008D02*
X0196917Y0028008D01*
X0195104Y0028008D02*
X0190667Y0028008D01*
X0188854Y0028008D02*
X0187061Y0028008D01*
X0192481Y0026409D02*
X0193291Y0026409D01*
X0193011Y0024811D02*
X0192761Y0024811D01*
X0198731Y0026409D02*
X0209031Y0026409D01*
X0207461Y0024811D02*
X0199011Y0024811D01*
X0202441Y0023212D02*
X0202809Y0023212D01*
X0202809Y0021614D02*
X0202441Y0021614D01*
X0202441Y0020015D02*
X0202809Y0020015D01*
X0202809Y0018417D02*
X0202441Y0018417D01*
X0202441Y0016818D02*
X0202809Y0016818D01*
X0202809Y0015220D02*
X0202441Y0015220D01*
X0202441Y0013621D02*
X0202809Y0013621D01*
X0202809Y0012022D02*
X0202441Y0012022D01*
X0213464Y0012022D02*
X0213833Y0012022D01*
X0213833Y0013621D02*
X0213464Y0013621D01*
X0213464Y0015220D02*
X0213833Y0015220D01*
X0213833Y0016818D02*
X0213464Y0016818D01*
X0213833Y0017845D02*
X0213833Y0018214D01*
X0217417Y0018214D01*
X0218976Y0018214D01*
X0218976Y0017845D01*
X0213833Y0017845D01*
X0218976Y0016818D02*
X0219345Y0016818D01*
X0219345Y0015220D02*
X0218976Y0015220D01*
X0218976Y0013621D02*
X0219345Y0013621D01*
X0219345Y0012022D02*
X0218976Y0012022D01*
X0177248Y0012022D02*
X0163311Y0012022D01*
X0163311Y0013621D02*
X0176809Y0013621D01*
X0176809Y0015220D02*
X0163311Y0015220D01*
X0163311Y0016818D02*
X0176809Y0016818D01*
X0176809Y0018417D02*
X0163311Y0018417D01*
X0165791Y0019936D02*
X0166202Y0019699D01*
X0166660Y0019576D01*
X0171535Y0019576D01*
X0171535Y0023160D01*
X0165097Y0023160D01*
X0165097Y0021139D01*
X0165219Y0020681D01*
X0165456Y0020271D01*
X0165791Y0019936D01*
X0165712Y0020015D02*
X0161884Y0020015D01*
X0160286Y0021614D02*
X0165097Y0021614D01*
X0159464Y0022436D02*
X0159464Y0022436D01*
X0165097Y0024811D02*
X0036084Y0024811D01*
X0036084Y0023212D02*
X0171535Y0023212D01*
X0171535Y0021614D02*
X0171904Y0021614D01*
X0171904Y0020015D02*
X0171535Y0020015D01*
X0165097Y0026409D02*
X0153593Y0026409D01*
X0153396Y0026212D02*
X0155674Y0028490D01*
X0156907Y0031467D01*
X0156907Y0034689D01*
X0155674Y0037666D01*
X0153396Y0039944D01*
X0150419Y0041177D01*
X0147197Y0041177D01*
X0144220Y0039944D01*
X0141942Y0037666D01*
X0140709Y0034689D01*
X0140709Y0031467D01*
X0141942Y0028490D01*
X0144220Y0026212D01*
X0147197Y0024979D01*
X0150419Y0024979D01*
X0153396Y0026212D01*
X0155192Y0028008D02*
X0165097Y0028008D01*
X0165097Y0029606D02*
X0156137Y0029606D01*
X0156799Y0031205D02*
X0165097Y0031205D01*
X0165097Y0032803D02*
X0156907Y0032803D01*
X0156907Y0034402D02*
X0165097Y0034402D01*
X0165097Y0036000D02*
X0156364Y0036000D01*
X0155702Y0037599D02*
X0165097Y0037599D01*
X0165097Y0039197D02*
X0154143Y0039197D01*
X0151340Y0040796D02*
X0165097Y0040796D01*
X0165097Y0042394D02*
X0140411Y0042394D01*
X0140411Y0042636D02*
X0136011Y0042636D01*
X0140411Y0042636D01*
X0140411Y0044458D01*
X0137833Y0047036D01*
X0136011Y0047036D01*
X0136011Y0042636D01*
X0136011Y0042636D01*
X0136011Y0042636D01*
X0136011Y0038236D01*
X0137833Y0038236D01*
X0140411Y0040813D01*
X0140411Y0042636D01*
X0140411Y0043993D02*
X0165097Y0043993D01*
X0165097Y0045591D02*
X0139278Y0045591D01*
X0136011Y0045591D02*
X0136011Y0045591D01*
X0136011Y0047036D02*
X0134188Y0047036D01*
X0131611Y0044458D01*
X0131611Y0042636D01*
X0136011Y0042636D01*
X0136011Y0042636D01*
X0136011Y0047036D01*
X0132744Y0045591D02*
X0109278Y0045591D01*
X0110411Y0044458D02*
X0107833Y0047036D01*
X0104188Y0047036D01*
X0101611Y0044458D01*
X0101611Y0040813D01*
X0104188Y0038236D01*
X0107833Y0038236D01*
X0110411Y0040813D01*
X0110411Y0044458D01*
X0110411Y0043993D02*
X0131611Y0043993D01*
X0131611Y0042636D02*
X0131611Y0040813D01*
X0134188Y0038236D01*
X0136011Y0038236D01*
X0136011Y0042636D01*
X0136011Y0042636D01*
X0131611Y0042636D01*
X0131611Y0042394D02*
X0110411Y0042394D01*
X0110393Y0040796D02*
X0131628Y0040796D01*
X0133227Y0039197D02*
X0108795Y0039197D01*
X0103227Y0039197D02*
X0094077Y0039197D01*
X0092916Y0038036D02*
X0091011Y0038036D01*
X0091011Y0042636D01*
X0095611Y0042636D01*
X0095611Y0044541D01*
X0092916Y0047236D01*
X0091011Y0047236D01*
X0091011Y0042636D01*
X0091011Y0042636D01*
X0091011Y0042636D01*
X0095611Y0042636D01*
X0095611Y0040730D01*
X0092916Y0038036D01*
X0091011Y0038036D02*
X0091011Y0042636D01*
X0091011Y0042636D01*
X0091011Y0047236D01*
X0089105Y0047236D01*
X0086411Y0044541D01*
X0086411Y0042636D01*
X0091011Y0042636D01*
X0091011Y0042636D01*
X0086411Y0042636D01*
X0086411Y0040730D01*
X0089105Y0038036D01*
X0091011Y0038036D01*
X0091011Y0039197D02*
X0091011Y0039197D01*
X0087944Y0039197D02*
X0084077Y0039197D01*
X0082916Y0038036D02*
X0085611Y0040730D01*
X0085611Y0044541D01*
X0082916Y0047236D01*
X0079105Y0047236D01*
X0076411Y0044541D01*
X0076411Y0040730D01*
X0079105Y0038036D01*
X0082916Y0038036D01*
X0077944Y0039197D02*
X0065283Y0039197D01*
X0065892Y0040667D02*
X0064659Y0037690D01*
X0062381Y0035412D01*
X0059404Y0034179D01*
X0056182Y0034179D01*
X0053205Y0035412D01*
X0050927Y0037690D01*
X0049694Y0040667D01*
X0049694Y0043889D01*
X0050927Y0046866D01*
X0053205Y0049144D01*
X0056182Y0050377D01*
X0059404Y0050377D01*
X0062381Y0049144D01*
X0064659Y0046866D01*
X0065892Y0043889D01*
X0065892Y0040667D01*
X0065892Y0040796D02*
X0076411Y0040796D01*
X0076411Y0042394D02*
X0065892Y0042394D01*
X0065849Y0043993D02*
X0076411Y0043993D01*
X0077461Y0045591D02*
X0065187Y0045591D01*
X0064335Y0047190D02*
X0079059Y0047190D01*
X0082962Y0047190D02*
X0089059Y0047190D01*
X0091011Y0047190D02*
X0091011Y0047190D01*
X0091011Y0045591D02*
X0091011Y0045591D01*
X0092962Y0047190D02*
X0165097Y0047190D01*
X0165097Y0048788D02*
X0062736Y0048788D01*
X0052849Y0048788D02*
X0036084Y0048788D01*
X0036084Y0047190D02*
X0051251Y0047190D01*
X0050399Y0045591D02*
X0036084Y0045591D01*
X0036084Y0043993D02*
X0049737Y0043993D01*
X0049694Y0042394D02*
X0036084Y0042394D01*
X0036084Y0040796D02*
X0049694Y0040796D01*
X0050302Y0039197D02*
X0036084Y0039197D01*
X0036084Y0037599D02*
X0051018Y0037599D01*
X0052616Y0036000D02*
X0036084Y0036000D01*
X0036084Y0034402D02*
X0055643Y0034402D01*
X0059942Y0034402D02*
X0140709Y0034402D01*
X0141252Y0036000D02*
X0062969Y0036000D01*
X0064568Y0037599D02*
X0141914Y0037599D01*
X0143473Y0039197D02*
X0138795Y0039197D01*
X0136011Y0039197D02*
X0136011Y0039197D01*
X0136011Y0040796D02*
X0136011Y0040796D01*
X0136011Y0042394D02*
X0136011Y0042394D01*
X0136011Y0043993D02*
X0136011Y0043993D01*
X0140393Y0040796D02*
X0146276Y0040796D01*
X0140709Y0032803D02*
X0036084Y0032803D01*
X0036084Y0031205D02*
X0140818Y0031205D01*
X0141480Y0029606D02*
X0036084Y0029606D01*
X0036084Y0028008D02*
X0142425Y0028008D01*
X0144023Y0026409D02*
X0036084Y0026409D01*
X0036084Y0021614D02*
X0085739Y0021614D01*
X0088492Y0022461D02*
X0088492Y0022461D01*
X0084040Y0020015D02*
X0077989Y0020015D01*
X0076211Y0020015D02*
X0075811Y0020015D01*
X0074032Y0020015D02*
X0067981Y0020015D01*
X0064040Y0020015D02*
X0057981Y0020015D01*
X0054040Y0020015D02*
X0047981Y0020015D01*
X0050018Y0018417D02*
X0052003Y0018417D01*
X0051305Y0016818D02*
X0050717Y0016818D01*
X0050811Y0015220D02*
X0051211Y0015220D01*
X0051211Y0013621D02*
X0050811Y0013621D01*
X0050811Y0012022D02*
X0051211Y0012022D01*
X0051211Y0010424D02*
X0050811Y0010424D01*
X0050811Y0008825D02*
X0051211Y0008825D01*
X0051813Y0007227D02*
X0050208Y0007227D01*
X0041813Y0007227D02*
X0037549Y0007227D01*
X0037553Y0008825D02*
X0041211Y0008825D01*
X0041211Y0010424D02*
X0037557Y0010424D01*
X0037561Y0012022D02*
X0041211Y0012022D01*
X0041211Y0013621D02*
X0037565Y0013621D01*
X0037569Y0015220D02*
X0041211Y0015220D01*
X0041305Y0016818D02*
X0037573Y0016818D01*
X0037577Y0018417D02*
X0042003Y0018417D01*
X0044040Y0020015D02*
X0036944Y0020015D01*
X0060018Y0018417D02*
X0062003Y0018417D01*
X0061305Y0016818D02*
X0060717Y0016818D01*
X0060811Y0015220D02*
X0061211Y0015220D01*
X0061211Y0013621D02*
X0060811Y0013621D01*
X0060811Y0012022D02*
X0061211Y0012022D01*
X0061211Y0010424D02*
X0060811Y0010424D01*
X0060811Y0008825D02*
X0061211Y0008825D01*
X0061813Y0007227D02*
X0060208Y0007227D01*
X0070208Y0007227D02*
X0071851Y0007227D01*
X0071279Y0008825D02*
X0070811Y0008825D01*
X0070811Y0010424D02*
X0071211Y0010424D01*
X0071211Y0012022D02*
X0070811Y0012022D01*
X0070811Y0013621D02*
X0071211Y0013621D01*
X0071211Y0015220D02*
X0070811Y0015220D01*
X0070717Y0016818D02*
X0071348Y0016818D01*
X0072098Y0018417D02*
X0070018Y0018417D01*
X0075811Y0018417D02*
X0076211Y0018417D01*
X0076211Y0016818D02*
X0075811Y0016818D01*
X0075811Y0015220D02*
X0076211Y0015220D01*
X0076211Y0013621D02*
X0075811Y0013621D01*
X0080811Y0013621D02*
X0081211Y0013621D01*
X0081211Y0012022D02*
X0080811Y0012022D01*
X0080811Y0010424D02*
X0081211Y0010424D01*
X0081211Y0008825D02*
X0080742Y0008825D01*
X0080170Y0007227D02*
X0081813Y0007227D01*
X0081211Y0015220D02*
X0080811Y0015220D01*
X0080674Y0016818D02*
X0081305Y0016818D01*
X0082003Y0018417D02*
X0079924Y0018417D01*
X0085611Y0040796D02*
X0086411Y0040796D01*
X0086411Y0042394D02*
X0085611Y0042394D01*
X0085611Y0043993D02*
X0086411Y0043993D01*
X0087461Y0045591D02*
X0084561Y0045591D01*
X0091011Y0043993D02*
X0091011Y0043993D01*
X0091011Y0042394D02*
X0091011Y0042394D01*
X0091011Y0040796D02*
X0091011Y0040796D01*
X0095611Y0040796D02*
X0101628Y0040796D01*
X0101611Y0042394D02*
X0095611Y0042394D01*
X0095611Y0043993D02*
X0101611Y0043993D01*
X0102744Y0045591D02*
X0094561Y0045591D01*
X0068730Y0065567D02*
X0066966Y0064836D01*
X0065056Y0064836D01*
X0063292Y0065567D01*
X0061941Y0066917D01*
X0061211Y0068681D01*
X0061211Y0076591D01*
X0061941Y0078355D01*
X0063292Y0079705D01*
X0065056Y0080436D01*
X0066966Y0080436D01*
X0068730Y0079705D01*
X0070080Y0078355D01*
X0070811Y0076591D01*
X0070811Y0068681D01*
X0070080Y0066917D01*
X0068730Y0065567D01*
X0069535Y0066372D02*
X0072487Y0066372D01*
X0071505Y0067970D02*
X0070516Y0067970D01*
X0070811Y0069569D02*
X0071211Y0069569D01*
X0071211Y0071167D02*
X0070811Y0071167D01*
X0070811Y0072766D02*
X0071211Y0072766D01*
X0071211Y0074364D02*
X0070811Y0074364D01*
X0070811Y0075963D02*
X0071211Y0075963D01*
X0071613Y0077561D02*
X0070409Y0077561D01*
X0069275Y0079160D02*
X0072747Y0079160D01*
X0075444Y0080758D02*
X0037885Y0080758D01*
X0037866Y0079160D02*
X0042747Y0079160D01*
X0043292Y0079705D02*
X0041941Y0078355D01*
X0041211Y0076591D01*
X0041211Y0068681D01*
X0041941Y0066917D01*
X0043292Y0065567D01*
X0045056Y0064836D01*
X0046966Y0064836D01*
X0048730Y0065567D01*
X0050080Y0066917D01*
X0050811Y0068681D01*
X0050811Y0076591D01*
X0050080Y0078355D01*
X0048730Y0079705D01*
X0046966Y0080436D01*
X0045056Y0080436D01*
X0043292Y0079705D01*
X0041613Y0077561D02*
X0037846Y0077561D01*
X0037827Y0075963D02*
X0041211Y0075963D01*
X0041211Y0074364D02*
X0037807Y0074364D01*
X0037788Y0072766D02*
X0041211Y0072766D01*
X0041211Y0071167D02*
X0037768Y0071167D01*
X0037749Y0069569D02*
X0041211Y0069569D01*
X0041505Y0067970D02*
X0037730Y0067970D01*
X0037712Y0066372D02*
X0042487Y0066372D01*
X0049535Y0066372D02*
X0052487Y0066372D01*
X0052349Y0066509D02*
X0052884Y0065975D01*
X0053495Y0065531D01*
X0054168Y0065188D01*
X0054887Y0064954D01*
X0055633Y0064836D01*
X0055811Y0064836D01*
X0055811Y0072436D01*
X0056211Y0072436D01*
X0056211Y0072836D01*
X0060811Y0072836D01*
X0060811Y0076014D01*
X0060693Y0076760D01*
X0060459Y0077478D01*
X0060116Y0078152D01*
X0059672Y0078763D01*
X0059138Y0079297D01*
X0058526Y0079741D01*
X0057853Y0080084D01*
X0057135Y0080318D01*
X0056388Y0080436D01*
X0056211Y0080436D01*
X0056211Y0072836D01*
X0055811Y0072836D01*
X0055811Y0080436D01*
X0055633Y0080436D01*
X0054887Y0080318D01*
X0054168Y0080084D01*
X0053495Y0079741D01*
X0052884Y0079297D01*
X0052349Y0078763D01*
X0051905Y0078152D01*
X0051562Y0077478D01*
X0051329Y0076760D01*
X0051211Y0076014D01*
X0051211Y0072836D01*
X0055811Y0072836D01*
X0055811Y0072436D01*
X0051211Y0072436D01*
X0051211Y0069258D01*
X0051329Y0068512D01*
X0051562Y0067793D01*
X0051905Y0067120D01*
X0052349Y0066509D01*
X0051505Y0067970D02*
X0050516Y0067970D01*
X0050811Y0069569D02*
X0051211Y0069569D01*
X0051211Y0071167D02*
X0050811Y0071167D01*
X0050811Y0072766D02*
X0055811Y0072766D01*
X0056211Y0072766D02*
X0061211Y0072766D01*
X0060811Y0072436D02*
X0056211Y0072436D01*
X0056211Y0064836D01*
X0056388Y0064836D01*
X0057135Y0064954D01*
X0057853Y0065188D01*
X0058526Y0065531D01*
X0059138Y0065975D01*
X0059672Y0066509D01*
X0060116Y0067120D01*
X0060459Y0067793D01*
X0060693Y0068512D01*
X0060811Y0069258D01*
X0060811Y0072436D01*
X0060811Y0071167D02*
X0061211Y0071167D01*
X0061211Y0069569D02*
X0060811Y0069569D01*
X0060517Y0067970D02*
X0061505Y0067970D01*
X0062487Y0066372D02*
X0059535Y0066372D01*
X0056211Y0066372D02*
X0055811Y0066372D01*
X0055811Y0067970D02*
X0056211Y0067970D01*
X0056211Y0069569D02*
X0055811Y0069569D01*
X0055811Y0071167D02*
X0056211Y0071167D01*
X0056211Y0074364D02*
X0055811Y0074364D01*
X0055811Y0075963D02*
X0056211Y0075963D01*
X0056211Y0077561D02*
X0055811Y0077561D01*
X0060417Y0077561D02*
X0061613Y0077561D01*
X0061211Y0075963D02*
X0060811Y0075963D01*
X0060811Y0074364D02*
X0061211Y0074364D01*
X0051211Y0074364D02*
X0050811Y0074364D01*
X0050811Y0075963D02*
X0051211Y0075963D01*
X0051605Y0077561D02*
X0050409Y0077561D01*
X0049275Y0079160D02*
X0052747Y0079160D01*
X0055811Y0079160D02*
X0056211Y0079160D01*
X0059275Y0079160D02*
X0062747Y0079160D01*
X0080409Y0077561D02*
X0081613Y0077561D01*
X0081211Y0075963D02*
X0080811Y0075963D01*
X0080811Y0074364D02*
X0081211Y0074364D01*
X0081211Y0072766D02*
X0080811Y0072766D01*
X0080811Y0071167D02*
X0081211Y0071167D01*
X0081211Y0069569D02*
X0080811Y0069569D01*
X0080516Y0067970D02*
X0081505Y0067970D01*
X0082487Y0066372D02*
X0079535Y0066372D01*
X0089535Y0066372D02*
X0092487Y0066372D01*
X0091505Y0067970D02*
X0090516Y0067970D01*
X0090811Y0069569D02*
X0091211Y0069569D01*
X0091211Y0071167D02*
X0090811Y0071167D01*
X0090811Y0072766D02*
X0091211Y0072766D01*
X0091211Y0074364D02*
X0090811Y0074364D01*
X0090811Y0075963D02*
X0091211Y0075963D01*
X0091613Y0077561D02*
X0090409Y0077561D01*
X0100409Y0077561D02*
X0101613Y0077561D01*
X0101211Y0075963D02*
X0100811Y0075963D01*
X0100811Y0074364D02*
X0101211Y0074364D01*
X0101211Y0072766D02*
X0100811Y0072766D01*
X0100811Y0071167D02*
X0101211Y0071167D01*
X0101211Y0069569D02*
X0100811Y0069569D01*
X0100516Y0067970D02*
X0101505Y0067970D01*
X0102487Y0066372D02*
X0099535Y0066372D01*
X0109535Y0066372D02*
X0112487Y0066372D01*
X0111505Y0067970D02*
X0110516Y0067970D01*
X0110811Y0069569D02*
X0111211Y0069569D01*
X0111211Y0071167D02*
X0110811Y0071167D01*
X0110811Y0072766D02*
X0111211Y0072766D01*
X0111211Y0074364D02*
X0110811Y0074364D01*
X0110811Y0075963D02*
X0111211Y0075963D01*
X0111613Y0077561D02*
X0110409Y0077561D01*
X0120409Y0077561D02*
X0121613Y0077561D01*
X0121211Y0075963D02*
X0120811Y0075963D01*
X0120811Y0074364D02*
X0121211Y0074364D01*
X0121211Y0072766D02*
X0120811Y0072766D01*
X0120811Y0071167D02*
X0121211Y0071167D01*
X0121211Y0069569D02*
X0120811Y0069569D01*
X0120516Y0067970D02*
X0121505Y0067970D01*
X0122487Y0066372D02*
X0119535Y0066372D01*
X0129535Y0066372D02*
X0132487Y0066372D01*
X0131505Y0067970D02*
X0130516Y0067970D01*
X0130811Y0069569D02*
X0131211Y0069569D01*
X0131211Y0071167D02*
X0130811Y0071167D01*
X0130811Y0072766D02*
X0131211Y0072766D01*
X0131211Y0074364D02*
X0130811Y0074364D01*
X0130811Y0075963D02*
X0131211Y0075963D01*
X0131613Y0077561D02*
X0130409Y0077561D01*
X0140409Y0077561D02*
X0141613Y0077561D01*
X0141211Y0075963D02*
X0140811Y0075963D01*
X0140811Y0074364D02*
X0141211Y0074364D01*
X0141211Y0072766D02*
X0140811Y0072766D01*
X0140811Y0071167D02*
X0141211Y0071167D01*
X0141211Y0069569D02*
X0140811Y0069569D01*
X0140516Y0067970D02*
X0141505Y0067970D01*
X0142487Y0066372D02*
X0139535Y0066372D01*
X0149535Y0066372D02*
X0152487Y0066372D01*
X0151505Y0067970D02*
X0150516Y0067970D01*
X0150811Y0069569D02*
X0151211Y0069569D01*
X0151211Y0071167D02*
X0150811Y0071167D01*
X0150811Y0072766D02*
X0151211Y0072766D01*
X0151211Y0074364D02*
X0150811Y0074364D01*
X0150811Y0075963D02*
X0151211Y0075963D01*
X0151613Y0077561D02*
X0150409Y0077561D01*
X0160409Y0077561D02*
X0176497Y0077561D01*
X0178116Y0075963D02*
X0160811Y0075963D01*
X0160811Y0074364D02*
X0179735Y0074364D01*
X0176935Y0072766D02*
X0160811Y0072766D01*
X0160811Y0071167D02*
X0176809Y0071167D01*
X0176809Y0069569D02*
X0160811Y0069569D01*
X0160516Y0067970D02*
X0176809Y0067970D01*
X0176809Y0066372D02*
X0159535Y0066372D01*
X0165229Y0064773D02*
X0036084Y0064773D01*
X0036084Y0063175D02*
X0165097Y0063175D01*
X0165097Y0061576D02*
X0036084Y0061576D01*
X0036084Y0059978D02*
X0165097Y0059978D01*
X0165097Y0058379D02*
X0036084Y0058379D01*
X0036084Y0056781D02*
X0165097Y0056781D01*
X0165097Y0055182D02*
X0036084Y0055182D01*
X0036084Y0053584D02*
X0165097Y0053584D01*
X0165097Y0051985D02*
X0036084Y0051985D01*
X0036084Y0050387D02*
X0165097Y0050387D01*
X0178342Y0051985D02*
X0204961Y0051985D01*
X0204961Y0050387D02*
X0182386Y0050387D01*
X0178342Y0053584D02*
X0204961Y0053584D01*
X0204961Y0055182D02*
X0178342Y0055182D01*
X0178342Y0056781D02*
X0204961Y0056781D01*
X0204961Y0058379D02*
X0178342Y0058379D01*
X0178342Y0059978D02*
X0204961Y0059978D01*
X0209561Y0059978D02*
X0223505Y0059978D01*
X0223502Y0061576D02*
X0222831Y0061576D01*
X0222929Y0063175D02*
X0223499Y0063175D01*
X0223495Y0064773D02*
X0222929Y0064773D01*
X0222929Y0066372D02*
X0223492Y0066372D01*
X0223489Y0067970D02*
X0222929Y0067970D01*
X0222929Y0069569D02*
X0223485Y0069569D01*
X0223482Y0071167D02*
X0222929Y0071167D01*
X0222929Y0072766D02*
X0223479Y0072766D01*
X0223475Y0074364D02*
X0186285Y0074364D01*
X0184664Y0075963D02*
X0223472Y0075963D01*
X0223469Y0077561D02*
X0183045Y0077561D01*
X0181425Y0079160D02*
X0223465Y0079160D01*
X0223462Y0080758D02*
X0179806Y0080758D01*
X0191601Y0067242D02*
X0197113Y0067242D01*
X0180762Y0066372D02*
X0180393Y0066372D01*
X0180393Y0064773D02*
X0180762Y0064773D01*
X0180762Y0063175D02*
X0180393Y0063175D01*
X0180393Y0061576D02*
X0180762Y0061576D01*
X0209561Y0058379D02*
X0223509Y0058379D01*
X0223512Y0056781D02*
X0209561Y0056781D01*
X0209561Y0055182D02*
X0223515Y0055182D01*
X0223519Y0053584D02*
X0209561Y0053584D01*
X0209561Y0051985D02*
X0223522Y0051985D01*
X0223525Y0050387D02*
X0209561Y0050387D01*
X0209561Y0048788D02*
X0223529Y0048788D01*
X0223532Y0047190D02*
X0209561Y0047190D01*
X0209561Y0045591D02*
X0223535Y0045591D01*
X0223539Y0043993D02*
X0209561Y0043993D01*
X0209561Y0042394D02*
X0223542Y0042394D01*
X0223545Y0040796D02*
X0209561Y0040796D01*
X0209561Y0039197D02*
X0223549Y0039197D01*
X0223552Y0037599D02*
X0209561Y0037599D01*
X0209561Y0036000D02*
X0223555Y0036000D01*
X0223559Y0034402D02*
X0209561Y0034402D01*
X0209921Y0032803D02*
X0223562Y0032803D01*
X0223565Y0031205D02*
X0210261Y0031205D01*
M02*
