G75*
%MOIN*%
%OFA0B0*%
%FSLAX25Y25*%
%IPPOS*%
%LPD*%
%AMOC8*
5,1,8,0,0,1.08239X$1,22.5*
%
%ADD10C,0.00000*%
%ADD11C,0.12998*%
%ADD12R,0.04337X0.10046*%
%ADD13R,0.10046X0.04337*%
%ADD14C,0.06400*%
%ADD15OC8,0.06000*%
%ADD16OC8,0.05600*%
D10*
X0035742Y0004543D02*
X0225421Y0004380D01*
X0225257Y0083418D01*
X0036116Y0083287D01*
X0035913Y0066626D01*
X0001142Y0066829D01*
X0001000Y0018636D01*
X0035777Y0018636D01*
X0035742Y0004543D01*
X0142509Y0033078D02*
X0142511Y0033236D01*
X0142517Y0033394D01*
X0142527Y0033552D01*
X0142541Y0033710D01*
X0142559Y0033867D01*
X0142580Y0034024D01*
X0142606Y0034180D01*
X0142636Y0034336D01*
X0142669Y0034491D01*
X0142707Y0034644D01*
X0142748Y0034797D01*
X0142793Y0034949D01*
X0142842Y0035100D01*
X0142895Y0035249D01*
X0142951Y0035397D01*
X0143011Y0035543D01*
X0143075Y0035688D01*
X0143143Y0035831D01*
X0143214Y0035973D01*
X0143288Y0036113D01*
X0143366Y0036250D01*
X0143448Y0036386D01*
X0143532Y0036520D01*
X0143621Y0036651D01*
X0143712Y0036780D01*
X0143807Y0036907D01*
X0143904Y0037032D01*
X0144005Y0037154D01*
X0144109Y0037273D01*
X0144216Y0037390D01*
X0144326Y0037504D01*
X0144439Y0037615D01*
X0144554Y0037724D01*
X0144672Y0037829D01*
X0144793Y0037931D01*
X0144916Y0038031D01*
X0145042Y0038127D01*
X0145170Y0038220D01*
X0145300Y0038310D01*
X0145433Y0038396D01*
X0145568Y0038480D01*
X0145704Y0038559D01*
X0145843Y0038636D01*
X0145984Y0038708D01*
X0146126Y0038778D01*
X0146270Y0038843D01*
X0146416Y0038905D01*
X0146563Y0038963D01*
X0146712Y0039018D01*
X0146862Y0039069D01*
X0147013Y0039116D01*
X0147165Y0039159D01*
X0147318Y0039198D01*
X0147473Y0039234D01*
X0147628Y0039265D01*
X0147784Y0039293D01*
X0147940Y0039317D01*
X0148097Y0039337D01*
X0148255Y0039353D01*
X0148412Y0039365D01*
X0148571Y0039373D01*
X0148729Y0039377D01*
X0148887Y0039377D01*
X0149045Y0039373D01*
X0149204Y0039365D01*
X0149361Y0039353D01*
X0149519Y0039337D01*
X0149676Y0039317D01*
X0149832Y0039293D01*
X0149988Y0039265D01*
X0150143Y0039234D01*
X0150298Y0039198D01*
X0150451Y0039159D01*
X0150603Y0039116D01*
X0150754Y0039069D01*
X0150904Y0039018D01*
X0151053Y0038963D01*
X0151200Y0038905D01*
X0151346Y0038843D01*
X0151490Y0038778D01*
X0151632Y0038708D01*
X0151773Y0038636D01*
X0151912Y0038559D01*
X0152048Y0038480D01*
X0152183Y0038396D01*
X0152316Y0038310D01*
X0152446Y0038220D01*
X0152574Y0038127D01*
X0152700Y0038031D01*
X0152823Y0037931D01*
X0152944Y0037829D01*
X0153062Y0037724D01*
X0153177Y0037615D01*
X0153290Y0037504D01*
X0153400Y0037390D01*
X0153507Y0037273D01*
X0153611Y0037154D01*
X0153712Y0037032D01*
X0153809Y0036907D01*
X0153904Y0036780D01*
X0153995Y0036651D01*
X0154084Y0036520D01*
X0154168Y0036386D01*
X0154250Y0036250D01*
X0154328Y0036113D01*
X0154402Y0035973D01*
X0154473Y0035831D01*
X0154541Y0035688D01*
X0154605Y0035543D01*
X0154665Y0035397D01*
X0154721Y0035249D01*
X0154774Y0035100D01*
X0154823Y0034949D01*
X0154868Y0034797D01*
X0154909Y0034644D01*
X0154947Y0034491D01*
X0154980Y0034336D01*
X0155010Y0034180D01*
X0155036Y0034024D01*
X0155057Y0033867D01*
X0155075Y0033710D01*
X0155089Y0033552D01*
X0155099Y0033394D01*
X0155105Y0033236D01*
X0155107Y0033078D01*
X0155105Y0032920D01*
X0155099Y0032762D01*
X0155089Y0032604D01*
X0155075Y0032446D01*
X0155057Y0032289D01*
X0155036Y0032132D01*
X0155010Y0031976D01*
X0154980Y0031820D01*
X0154947Y0031665D01*
X0154909Y0031512D01*
X0154868Y0031359D01*
X0154823Y0031207D01*
X0154774Y0031056D01*
X0154721Y0030907D01*
X0154665Y0030759D01*
X0154605Y0030613D01*
X0154541Y0030468D01*
X0154473Y0030325D01*
X0154402Y0030183D01*
X0154328Y0030043D01*
X0154250Y0029906D01*
X0154168Y0029770D01*
X0154084Y0029636D01*
X0153995Y0029505D01*
X0153904Y0029376D01*
X0153809Y0029249D01*
X0153712Y0029124D01*
X0153611Y0029002D01*
X0153507Y0028883D01*
X0153400Y0028766D01*
X0153290Y0028652D01*
X0153177Y0028541D01*
X0153062Y0028432D01*
X0152944Y0028327D01*
X0152823Y0028225D01*
X0152700Y0028125D01*
X0152574Y0028029D01*
X0152446Y0027936D01*
X0152316Y0027846D01*
X0152183Y0027760D01*
X0152048Y0027676D01*
X0151912Y0027597D01*
X0151773Y0027520D01*
X0151632Y0027448D01*
X0151490Y0027378D01*
X0151346Y0027313D01*
X0151200Y0027251D01*
X0151053Y0027193D01*
X0150904Y0027138D01*
X0150754Y0027087D01*
X0150603Y0027040D01*
X0150451Y0026997D01*
X0150298Y0026958D01*
X0150143Y0026922D01*
X0149988Y0026891D01*
X0149832Y0026863D01*
X0149676Y0026839D01*
X0149519Y0026819D01*
X0149361Y0026803D01*
X0149204Y0026791D01*
X0149045Y0026783D01*
X0148887Y0026779D01*
X0148729Y0026779D01*
X0148571Y0026783D01*
X0148412Y0026791D01*
X0148255Y0026803D01*
X0148097Y0026819D01*
X0147940Y0026839D01*
X0147784Y0026863D01*
X0147628Y0026891D01*
X0147473Y0026922D01*
X0147318Y0026958D01*
X0147165Y0026997D01*
X0147013Y0027040D01*
X0146862Y0027087D01*
X0146712Y0027138D01*
X0146563Y0027193D01*
X0146416Y0027251D01*
X0146270Y0027313D01*
X0146126Y0027378D01*
X0145984Y0027448D01*
X0145843Y0027520D01*
X0145704Y0027597D01*
X0145568Y0027676D01*
X0145433Y0027760D01*
X0145300Y0027846D01*
X0145170Y0027936D01*
X0145042Y0028029D01*
X0144916Y0028125D01*
X0144793Y0028225D01*
X0144672Y0028327D01*
X0144554Y0028432D01*
X0144439Y0028541D01*
X0144326Y0028652D01*
X0144216Y0028766D01*
X0144109Y0028883D01*
X0144005Y0029002D01*
X0143904Y0029124D01*
X0143807Y0029249D01*
X0143712Y0029376D01*
X0143621Y0029505D01*
X0143532Y0029636D01*
X0143448Y0029770D01*
X0143366Y0029906D01*
X0143288Y0030043D01*
X0143214Y0030183D01*
X0143143Y0030325D01*
X0143075Y0030468D01*
X0143011Y0030613D01*
X0142951Y0030759D01*
X0142895Y0030907D01*
X0142842Y0031056D01*
X0142793Y0031207D01*
X0142748Y0031359D01*
X0142707Y0031512D01*
X0142669Y0031665D01*
X0142636Y0031820D01*
X0142606Y0031976D01*
X0142580Y0032132D01*
X0142559Y0032289D01*
X0142541Y0032446D01*
X0142527Y0032604D01*
X0142517Y0032762D01*
X0142511Y0032920D01*
X0142509Y0033078D01*
X0051494Y0042278D02*
X0051496Y0042436D01*
X0051502Y0042594D01*
X0051512Y0042752D01*
X0051526Y0042910D01*
X0051544Y0043067D01*
X0051565Y0043224D01*
X0051591Y0043380D01*
X0051621Y0043536D01*
X0051654Y0043691D01*
X0051692Y0043844D01*
X0051733Y0043997D01*
X0051778Y0044149D01*
X0051827Y0044300D01*
X0051880Y0044449D01*
X0051936Y0044597D01*
X0051996Y0044743D01*
X0052060Y0044888D01*
X0052128Y0045031D01*
X0052199Y0045173D01*
X0052273Y0045313D01*
X0052351Y0045450D01*
X0052433Y0045586D01*
X0052517Y0045720D01*
X0052606Y0045851D01*
X0052697Y0045980D01*
X0052792Y0046107D01*
X0052889Y0046232D01*
X0052990Y0046354D01*
X0053094Y0046473D01*
X0053201Y0046590D01*
X0053311Y0046704D01*
X0053424Y0046815D01*
X0053539Y0046924D01*
X0053657Y0047029D01*
X0053778Y0047131D01*
X0053901Y0047231D01*
X0054027Y0047327D01*
X0054155Y0047420D01*
X0054285Y0047510D01*
X0054418Y0047596D01*
X0054553Y0047680D01*
X0054689Y0047759D01*
X0054828Y0047836D01*
X0054969Y0047908D01*
X0055111Y0047978D01*
X0055255Y0048043D01*
X0055401Y0048105D01*
X0055548Y0048163D01*
X0055697Y0048218D01*
X0055847Y0048269D01*
X0055998Y0048316D01*
X0056150Y0048359D01*
X0056303Y0048398D01*
X0056458Y0048434D01*
X0056613Y0048465D01*
X0056769Y0048493D01*
X0056925Y0048517D01*
X0057082Y0048537D01*
X0057240Y0048553D01*
X0057397Y0048565D01*
X0057556Y0048573D01*
X0057714Y0048577D01*
X0057872Y0048577D01*
X0058030Y0048573D01*
X0058189Y0048565D01*
X0058346Y0048553D01*
X0058504Y0048537D01*
X0058661Y0048517D01*
X0058817Y0048493D01*
X0058973Y0048465D01*
X0059128Y0048434D01*
X0059283Y0048398D01*
X0059436Y0048359D01*
X0059588Y0048316D01*
X0059739Y0048269D01*
X0059889Y0048218D01*
X0060038Y0048163D01*
X0060185Y0048105D01*
X0060331Y0048043D01*
X0060475Y0047978D01*
X0060617Y0047908D01*
X0060758Y0047836D01*
X0060897Y0047759D01*
X0061033Y0047680D01*
X0061168Y0047596D01*
X0061301Y0047510D01*
X0061431Y0047420D01*
X0061559Y0047327D01*
X0061685Y0047231D01*
X0061808Y0047131D01*
X0061929Y0047029D01*
X0062047Y0046924D01*
X0062162Y0046815D01*
X0062275Y0046704D01*
X0062385Y0046590D01*
X0062492Y0046473D01*
X0062596Y0046354D01*
X0062697Y0046232D01*
X0062794Y0046107D01*
X0062889Y0045980D01*
X0062980Y0045851D01*
X0063069Y0045720D01*
X0063153Y0045586D01*
X0063235Y0045450D01*
X0063313Y0045313D01*
X0063387Y0045173D01*
X0063458Y0045031D01*
X0063526Y0044888D01*
X0063590Y0044743D01*
X0063650Y0044597D01*
X0063706Y0044449D01*
X0063759Y0044300D01*
X0063808Y0044149D01*
X0063853Y0043997D01*
X0063894Y0043844D01*
X0063932Y0043691D01*
X0063965Y0043536D01*
X0063995Y0043380D01*
X0064021Y0043224D01*
X0064042Y0043067D01*
X0064060Y0042910D01*
X0064074Y0042752D01*
X0064084Y0042594D01*
X0064090Y0042436D01*
X0064092Y0042278D01*
X0064090Y0042120D01*
X0064084Y0041962D01*
X0064074Y0041804D01*
X0064060Y0041646D01*
X0064042Y0041489D01*
X0064021Y0041332D01*
X0063995Y0041176D01*
X0063965Y0041020D01*
X0063932Y0040865D01*
X0063894Y0040712D01*
X0063853Y0040559D01*
X0063808Y0040407D01*
X0063759Y0040256D01*
X0063706Y0040107D01*
X0063650Y0039959D01*
X0063590Y0039813D01*
X0063526Y0039668D01*
X0063458Y0039525D01*
X0063387Y0039383D01*
X0063313Y0039243D01*
X0063235Y0039106D01*
X0063153Y0038970D01*
X0063069Y0038836D01*
X0062980Y0038705D01*
X0062889Y0038576D01*
X0062794Y0038449D01*
X0062697Y0038324D01*
X0062596Y0038202D01*
X0062492Y0038083D01*
X0062385Y0037966D01*
X0062275Y0037852D01*
X0062162Y0037741D01*
X0062047Y0037632D01*
X0061929Y0037527D01*
X0061808Y0037425D01*
X0061685Y0037325D01*
X0061559Y0037229D01*
X0061431Y0037136D01*
X0061301Y0037046D01*
X0061168Y0036960D01*
X0061033Y0036876D01*
X0060897Y0036797D01*
X0060758Y0036720D01*
X0060617Y0036648D01*
X0060475Y0036578D01*
X0060331Y0036513D01*
X0060185Y0036451D01*
X0060038Y0036393D01*
X0059889Y0036338D01*
X0059739Y0036287D01*
X0059588Y0036240D01*
X0059436Y0036197D01*
X0059283Y0036158D01*
X0059128Y0036122D01*
X0058973Y0036091D01*
X0058817Y0036063D01*
X0058661Y0036039D01*
X0058504Y0036019D01*
X0058346Y0036003D01*
X0058189Y0035991D01*
X0058030Y0035983D01*
X0057872Y0035979D01*
X0057714Y0035979D01*
X0057556Y0035983D01*
X0057397Y0035991D01*
X0057240Y0036003D01*
X0057082Y0036019D01*
X0056925Y0036039D01*
X0056769Y0036063D01*
X0056613Y0036091D01*
X0056458Y0036122D01*
X0056303Y0036158D01*
X0056150Y0036197D01*
X0055998Y0036240D01*
X0055847Y0036287D01*
X0055697Y0036338D01*
X0055548Y0036393D01*
X0055401Y0036451D01*
X0055255Y0036513D01*
X0055111Y0036578D01*
X0054969Y0036648D01*
X0054828Y0036720D01*
X0054689Y0036797D01*
X0054553Y0036876D01*
X0054418Y0036960D01*
X0054285Y0037046D01*
X0054155Y0037136D01*
X0054027Y0037229D01*
X0053901Y0037325D01*
X0053778Y0037425D01*
X0053657Y0037527D01*
X0053539Y0037632D01*
X0053424Y0037741D01*
X0053311Y0037852D01*
X0053201Y0037966D01*
X0053094Y0038083D01*
X0052990Y0038202D01*
X0052889Y0038324D01*
X0052792Y0038449D01*
X0052697Y0038576D01*
X0052606Y0038705D01*
X0052517Y0038836D01*
X0052433Y0038970D01*
X0052351Y0039106D01*
X0052273Y0039243D01*
X0052199Y0039383D01*
X0052128Y0039525D01*
X0052060Y0039668D01*
X0051996Y0039813D01*
X0051936Y0039959D01*
X0051880Y0040107D01*
X0051827Y0040256D01*
X0051778Y0040407D01*
X0051733Y0040559D01*
X0051692Y0040712D01*
X0051654Y0040865D01*
X0051621Y0041020D01*
X0051591Y0041176D01*
X0051565Y0041332D01*
X0051544Y0041489D01*
X0051526Y0041646D01*
X0051512Y0041804D01*
X0051502Y0041962D01*
X0051496Y0042120D01*
X0051494Y0042278D01*
D11*
X0057793Y0042278D03*
X0148808Y0033078D03*
D12*
X0180578Y0018030D03*
X0186089Y0018030D03*
X0191601Y0018030D03*
X0197113Y0018030D03*
X0202625Y0018030D03*
X0208137Y0018030D03*
X0213649Y0018030D03*
X0219160Y0018030D03*
X0219160Y0067242D03*
X0213649Y0067242D03*
X0208137Y0067242D03*
X0202625Y0067242D03*
X0197113Y0067242D03*
X0191601Y0067242D03*
X0186089Y0067242D03*
X0180578Y0067242D03*
D13*
X0171719Y0061927D03*
X0171719Y0056415D03*
X0171719Y0050904D03*
X0171719Y0045392D03*
X0171719Y0039880D03*
X0171719Y0034368D03*
X0171719Y0028856D03*
X0171719Y0023345D03*
D14*
X0156011Y0015636D02*
X0156011Y0009636D01*
X0146011Y0009636D02*
X0146011Y0015636D01*
X0136011Y0015636D02*
X0136011Y0009636D01*
X0126011Y0009636D02*
X0126011Y0015636D01*
X0116011Y0015636D02*
X0116011Y0009636D01*
X0106011Y0009636D02*
X0106011Y0015636D01*
X0096011Y0015636D02*
X0096011Y0009636D01*
X0086011Y0009636D02*
X0086011Y0015636D01*
X0076011Y0015636D02*
X0076011Y0009636D01*
X0066011Y0009636D02*
X0066011Y0015636D01*
X0056011Y0015636D02*
X0056011Y0009636D01*
X0046011Y0009636D02*
X0046011Y0015636D01*
X0046011Y0069636D02*
X0046011Y0075636D01*
X0056011Y0075636D02*
X0056011Y0069636D01*
X0066011Y0069636D02*
X0066011Y0075636D01*
X0076011Y0075636D02*
X0076011Y0069636D01*
X0086011Y0069636D02*
X0086011Y0075636D01*
X0096011Y0075636D02*
X0096011Y0069636D01*
X0106011Y0069636D02*
X0106011Y0075636D01*
X0116011Y0075636D02*
X0116011Y0069636D01*
X0126011Y0069636D02*
X0126011Y0075636D01*
X0136011Y0075636D02*
X0136011Y0069636D01*
X0146011Y0069636D02*
X0146011Y0075636D01*
X0156011Y0075636D02*
X0156011Y0069636D01*
D15*
X0091011Y0042636D03*
X0081011Y0042636D03*
D16*
X0106011Y0042636D03*
X0136011Y0042636D03*
M02*
