G75*
%MOIN*%
%OFA0B0*%
%FSLAX25Y25*%
%IPPOS*%
%LPD*%
%AMOC8*
5,1,8,0,0,1.08239X$1,22.5*
%
%ADD10C,0.00000*%
%ADD11C,0.06000*%
%ADD12R,0.29528X0.05906*%
%ADD13R,0.25591X0.03937*%
%ADD14OC8,0.05600*%
%ADD15OC8,0.05200*%
%ADD16C,0.01000*%
%ADD17C,0.02400*%
%ADD18C,0.01600*%
D10*
X0035742Y0004543D02*
X0225421Y0004380D01*
X0225257Y0083418D01*
X0036116Y0083287D01*
X0035913Y0066626D01*
X0001142Y0066829D01*
X0001000Y0018636D01*
X0035777Y0018636D01*
X0035742Y0004543D01*
X0142509Y0033078D02*
X0142511Y0033236D01*
X0142517Y0033394D01*
X0142527Y0033552D01*
X0142541Y0033710D01*
X0142559Y0033867D01*
X0142580Y0034024D01*
X0142606Y0034180D01*
X0142636Y0034336D01*
X0142669Y0034491D01*
X0142707Y0034644D01*
X0142748Y0034797D01*
X0142793Y0034949D01*
X0142842Y0035100D01*
X0142895Y0035249D01*
X0142951Y0035397D01*
X0143011Y0035543D01*
X0143075Y0035688D01*
X0143143Y0035831D01*
X0143214Y0035973D01*
X0143288Y0036113D01*
X0143366Y0036250D01*
X0143448Y0036386D01*
X0143532Y0036520D01*
X0143621Y0036651D01*
X0143712Y0036780D01*
X0143807Y0036907D01*
X0143904Y0037032D01*
X0144005Y0037154D01*
X0144109Y0037273D01*
X0144216Y0037390D01*
X0144326Y0037504D01*
X0144439Y0037615D01*
X0144554Y0037724D01*
X0144672Y0037829D01*
X0144793Y0037931D01*
X0144916Y0038031D01*
X0145042Y0038127D01*
X0145170Y0038220D01*
X0145300Y0038310D01*
X0145433Y0038396D01*
X0145568Y0038480D01*
X0145704Y0038559D01*
X0145843Y0038636D01*
X0145984Y0038708D01*
X0146126Y0038778D01*
X0146270Y0038843D01*
X0146416Y0038905D01*
X0146563Y0038963D01*
X0146712Y0039018D01*
X0146862Y0039069D01*
X0147013Y0039116D01*
X0147165Y0039159D01*
X0147318Y0039198D01*
X0147473Y0039234D01*
X0147628Y0039265D01*
X0147784Y0039293D01*
X0147940Y0039317D01*
X0148097Y0039337D01*
X0148255Y0039353D01*
X0148412Y0039365D01*
X0148571Y0039373D01*
X0148729Y0039377D01*
X0148887Y0039377D01*
X0149045Y0039373D01*
X0149204Y0039365D01*
X0149361Y0039353D01*
X0149519Y0039337D01*
X0149676Y0039317D01*
X0149832Y0039293D01*
X0149988Y0039265D01*
X0150143Y0039234D01*
X0150298Y0039198D01*
X0150451Y0039159D01*
X0150603Y0039116D01*
X0150754Y0039069D01*
X0150904Y0039018D01*
X0151053Y0038963D01*
X0151200Y0038905D01*
X0151346Y0038843D01*
X0151490Y0038778D01*
X0151632Y0038708D01*
X0151773Y0038636D01*
X0151912Y0038559D01*
X0152048Y0038480D01*
X0152183Y0038396D01*
X0152316Y0038310D01*
X0152446Y0038220D01*
X0152574Y0038127D01*
X0152700Y0038031D01*
X0152823Y0037931D01*
X0152944Y0037829D01*
X0153062Y0037724D01*
X0153177Y0037615D01*
X0153290Y0037504D01*
X0153400Y0037390D01*
X0153507Y0037273D01*
X0153611Y0037154D01*
X0153712Y0037032D01*
X0153809Y0036907D01*
X0153904Y0036780D01*
X0153995Y0036651D01*
X0154084Y0036520D01*
X0154168Y0036386D01*
X0154250Y0036250D01*
X0154328Y0036113D01*
X0154402Y0035973D01*
X0154473Y0035831D01*
X0154541Y0035688D01*
X0154605Y0035543D01*
X0154665Y0035397D01*
X0154721Y0035249D01*
X0154774Y0035100D01*
X0154823Y0034949D01*
X0154868Y0034797D01*
X0154909Y0034644D01*
X0154947Y0034491D01*
X0154980Y0034336D01*
X0155010Y0034180D01*
X0155036Y0034024D01*
X0155057Y0033867D01*
X0155075Y0033710D01*
X0155089Y0033552D01*
X0155099Y0033394D01*
X0155105Y0033236D01*
X0155107Y0033078D01*
X0155105Y0032920D01*
X0155099Y0032762D01*
X0155089Y0032604D01*
X0155075Y0032446D01*
X0155057Y0032289D01*
X0155036Y0032132D01*
X0155010Y0031976D01*
X0154980Y0031820D01*
X0154947Y0031665D01*
X0154909Y0031512D01*
X0154868Y0031359D01*
X0154823Y0031207D01*
X0154774Y0031056D01*
X0154721Y0030907D01*
X0154665Y0030759D01*
X0154605Y0030613D01*
X0154541Y0030468D01*
X0154473Y0030325D01*
X0154402Y0030183D01*
X0154328Y0030043D01*
X0154250Y0029906D01*
X0154168Y0029770D01*
X0154084Y0029636D01*
X0153995Y0029505D01*
X0153904Y0029376D01*
X0153809Y0029249D01*
X0153712Y0029124D01*
X0153611Y0029002D01*
X0153507Y0028883D01*
X0153400Y0028766D01*
X0153290Y0028652D01*
X0153177Y0028541D01*
X0153062Y0028432D01*
X0152944Y0028327D01*
X0152823Y0028225D01*
X0152700Y0028125D01*
X0152574Y0028029D01*
X0152446Y0027936D01*
X0152316Y0027846D01*
X0152183Y0027760D01*
X0152048Y0027676D01*
X0151912Y0027597D01*
X0151773Y0027520D01*
X0151632Y0027448D01*
X0151490Y0027378D01*
X0151346Y0027313D01*
X0151200Y0027251D01*
X0151053Y0027193D01*
X0150904Y0027138D01*
X0150754Y0027087D01*
X0150603Y0027040D01*
X0150451Y0026997D01*
X0150298Y0026958D01*
X0150143Y0026922D01*
X0149988Y0026891D01*
X0149832Y0026863D01*
X0149676Y0026839D01*
X0149519Y0026819D01*
X0149361Y0026803D01*
X0149204Y0026791D01*
X0149045Y0026783D01*
X0148887Y0026779D01*
X0148729Y0026779D01*
X0148571Y0026783D01*
X0148412Y0026791D01*
X0148255Y0026803D01*
X0148097Y0026819D01*
X0147940Y0026839D01*
X0147784Y0026863D01*
X0147628Y0026891D01*
X0147473Y0026922D01*
X0147318Y0026958D01*
X0147165Y0026997D01*
X0147013Y0027040D01*
X0146862Y0027087D01*
X0146712Y0027138D01*
X0146563Y0027193D01*
X0146416Y0027251D01*
X0146270Y0027313D01*
X0146126Y0027378D01*
X0145984Y0027448D01*
X0145843Y0027520D01*
X0145704Y0027597D01*
X0145568Y0027676D01*
X0145433Y0027760D01*
X0145300Y0027846D01*
X0145170Y0027936D01*
X0145042Y0028029D01*
X0144916Y0028125D01*
X0144793Y0028225D01*
X0144672Y0028327D01*
X0144554Y0028432D01*
X0144439Y0028541D01*
X0144326Y0028652D01*
X0144216Y0028766D01*
X0144109Y0028883D01*
X0144005Y0029002D01*
X0143904Y0029124D01*
X0143807Y0029249D01*
X0143712Y0029376D01*
X0143621Y0029505D01*
X0143532Y0029636D01*
X0143448Y0029770D01*
X0143366Y0029906D01*
X0143288Y0030043D01*
X0143214Y0030183D01*
X0143143Y0030325D01*
X0143075Y0030468D01*
X0143011Y0030613D01*
X0142951Y0030759D01*
X0142895Y0030907D01*
X0142842Y0031056D01*
X0142793Y0031207D01*
X0142748Y0031359D01*
X0142707Y0031512D01*
X0142669Y0031665D01*
X0142636Y0031820D01*
X0142606Y0031976D01*
X0142580Y0032132D01*
X0142559Y0032289D01*
X0142541Y0032446D01*
X0142527Y0032604D01*
X0142517Y0032762D01*
X0142511Y0032920D01*
X0142509Y0033078D01*
X0051494Y0042278D02*
X0051496Y0042436D01*
X0051502Y0042594D01*
X0051512Y0042752D01*
X0051526Y0042910D01*
X0051544Y0043067D01*
X0051565Y0043224D01*
X0051591Y0043380D01*
X0051621Y0043536D01*
X0051654Y0043691D01*
X0051692Y0043844D01*
X0051733Y0043997D01*
X0051778Y0044149D01*
X0051827Y0044300D01*
X0051880Y0044449D01*
X0051936Y0044597D01*
X0051996Y0044743D01*
X0052060Y0044888D01*
X0052128Y0045031D01*
X0052199Y0045173D01*
X0052273Y0045313D01*
X0052351Y0045450D01*
X0052433Y0045586D01*
X0052517Y0045720D01*
X0052606Y0045851D01*
X0052697Y0045980D01*
X0052792Y0046107D01*
X0052889Y0046232D01*
X0052990Y0046354D01*
X0053094Y0046473D01*
X0053201Y0046590D01*
X0053311Y0046704D01*
X0053424Y0046815D01*
X0053539Y0046924D01*
X0053657Y0047029D01*
X0053778Y0047131D01*
X0053901Y0047231D01*
X0054027Y0047327D01*
X0054155Y0047420D01*
X0054285Y0047510D01*
X0054418Y0047596D01*
X0054553Y0047680D01*
X0054689Y0047759D01*
X0054828Y0047836D01*
X0054969Y0047908D01*
X0055111Y0047978D01*
X0055255Y0048043D01*
X0055401Y0048105D01*
X0055548Y0048163D01*
X0055697Y0048218D01*
X0055847Y0048269D01*
X0055998Y0048316D01*
X0056150Y0048359D01*
X0056303Y0048398D01*
X0056458Y0048434D01*
X0056613Y0048465D01*
X0056769Y0048493D01*
X0056925Y0048517D01*
X0057082Y0048537D01*
X0057240Y0048553D01*
X0057397Y0048565D01*
X0057556Y0048573D01*
X0057714Y0048577D01*
X0057872Y0048577D01*
X0058030Y0048573D01*
X0058189Y0048565D01*
X0058346Y0048553D01*
X0058504Y0048537D01*
X0058661Y0048517D01*
X0058817Y0048493D01*
X0058973Y0048465D01*
X0059128Y0048434D01*
X0059283Y0048398D01*
X0059436Y0048359D01*
X0059588Y0048316D01*
X0059739Y0048269D01*
X0059889Y0048218D01*
X0060038Y0048163D01*
X0060185Y0048105D01*
X0060331Y0048043D01*
X0060475Y0047978D01*
X0060617Y0047908D01*
X0060758Y0047836D01*
X0060897Y0047759D01*
X0061033Y0047680D01*
X0061168Y0047596D01*
X0061301Y0047510D01*
X0061431Y0047420D01*
X0061559Y0047327D01*
X0061685Y0047231D01*
X0061808Y0047131D01*
X0061929Y0047029D01*
X0062047Y0046924D01*
X0062162Y0046815D01*
X0062275Y0046704D01*
X0062385Y0046590D01*
X0062492Y0046473D01*
X0062596Y0046354D01*
X0062697Y0046232D01*
X0062794Y0046107D01*
X0062889Y0045980D01*
X0062980Y0045851D01*
X0063069Y0045720D01*
X0063153Y0045586D01*
X0063235Y0045450D01*
X0063313Y0045313D01*
X0063387Y0045173D01*
X0063458Y0045031D01*
X0063526Y0044888D01*
X0063590Y0044743D01*
X0063650Y0044597D01*
X0063706Y0044449D01*
X0063759Y0044300D01*
X0063808Y0044149D01*
X0063853Y0043997D01*
X0063894Y0043844D01*
X0063932Y0043691D01*
X0063965Y0043536D01*
X0063995Y0043380D01*
X0064021Y0043224D01*
X0064042Y0043067D01*
X0064060Y0042910D01*
X0064074Y0042752D01*
X0064084Y0042594D01*
X0064090Y0042436D01*
X0064092Y0042278D01*
X0064090Y0042120D01*
X0064084Y0041962D01*
X0064074Y0041804D01*
X0064060Y0041646D01*
X0064042Y0041489D01*
X0064021Y0041332D01*
X0063995Y0041176D01*
X0063965Y0041020D01*
X0063932Y0040865D01*
X0063894Y0040712D01*
X0063853Y0040559D01*
X0063808Y0040407D01*
X0063759Y0040256D01*
X0063706Y0040107D01*
X0063650Y0039959D01*
X0063590Y0039813D01*
X0063526Y0039668D01*
X0063458Y0039525D01*
X0063387Y0039383D01*
X0063313Y0039243D01*
X0063235Y0039106D01*
X0063153Y0038970D01*
X0063069Y0038836D01*
X0062980Y0038705D01*
X0062889Y0038576D01*
X0062794Y0038449D01*
X0062697Y0038324D01*
X0062596Y0038202D01*
X0062492Y0038083D01*
X0062385Y0037966D01*
X0062275Y0037852D01*
X0062162Y0037741D01*
X0062047Y0037632D01*
X0061929Y0037527D01*
X0061808Y0037425D01*
X0061685Y0037325D01*
X0061559Y0037229D01*
X0061431Y0037136D01*
X0061301Y0037046D01*
X0061168Y0036960D01*
X0061033Y0036876D01*
X0060897Y0036797D01*
X0060758Y0036720D01*
X0060617Y0036648D01*
X0060475Y0036578D01*
X0060331Y0036513D01*
X0060185Y0036451D01*
X0060038Y0036393D01*
X0059889Y0036338D01*
X0059739Y0036287D01*
X0059588Y0036240D01*
X0059436Y0036197D01*
X0059283Y0036158D01*
X0059128Y0036122D01*
X0058973Y0036091D01*
X0058817Y0036063D01*
X0058661Y0036039D01*
X0058504Y0036019D01*
X0058346Y0036003D01*
X0058189Y0035991D01*
X0058030Y0035983D01*
X0057872Y0035979D01*
X0057714Y0035979D01*
X0057556Y0035983D01*
X0057397Y0035991D01*
X0057240Y0036003D01*
X0057082Y0036019D01*
X0056925Y0036039D01*
X0056769Y0036063D01*
X0056613Y0036091D01*
X0056458Y0036122D01*
X0056303Y0036158D01*
X0056150Y0036197D01*
X0055998Y0036240D01*
X0055847Y0036287D01*
X0055697Y0036338D01*
X0055548Y0036393D01*
X0055401Y0036451D01*
X0055255Y0036513D01*
X0055111Y0036578D01*
X0054969Y0036648D01*
X0054828Y0036720D01*
X0054689Y0036797D01*
X0054553Y0036876D01*
X0054418Y0036960D01*
X0054285Y0037046D01*
X0054155Y0037136D01*
X0054027Y0037229D01*
X0053901Y0037325D01*
X0053778Y0037425D01*
X0053657Y0037527D01*
X0053539Y0037632D01*
X0053424Y0037741D01*
X0053311Y0037852D01*
X0053201Y0037966D01*
X0053094Y0038083D01*
X0052990Y0038202D01*
X0052889Y0038324D01*
X0052792Y0038449D01*
X0052697Y0038576D01*
X0052606Y0038705D01*
X0052517Y0038836D01*
X0052433Y0038970D01*
X0052351Y0039106D01*
X0052273Y0039243D01*
X0052199Y0039383D01*
X0052128Y0039525D01*
X0052060Y0039668D01*
X0051996Y0039813D01*
X0051936Y0039959D01*
X0051880Y0040107D01*
X0051827Y0040256D01*
X0051778Y0040407D01*
X0051733Y0040559D01*
X0051692Y0040712D01*
X0051654Y0040865D01*
X0051621Y0041020D01*
X0051591Y0041176D01*
X0051565Y0041332D01*
X0051544Y0041489D01*
X0051526Y0041646D01*
X0051512Y0041804D01*
X0051502Y0041962D01*
X0051496Y0042120D01*
X0051494Y0042278D01*
D11*
X0056011Y0015636D02*
X0056011Y0009636D01*
X0066011Y0009636D02*
X0066011Y0015636D01*
X0076011Y0015636D02*
X0076011Y0009636D01*
X0086011Y0009636D02*
X0086011Y0015636D01*
X0096011Y0015636D02*
X0096011Y0009636D01*
X0106011Y0009636D02*
X0106011Y0015636D01*
X0116011Y0015636D02*
X0116011Y0009636D01*
X0126011Y0009636D02*
X0126011Y0015636D01*
X0136011Y0015636D02*
X0136011Y0009636D01*
X0146011Y0009636D02*
X0146011Y0015636D01*
X0156011Y0015636D02*
X0156011Y0009636D01*
X0046011Y0009636D02*
X0046011Y0015636D01*
X0046011Y0069636D02*
X0046011Y0075636D01*
X0056011Y0075636D02*
X0056011Y0069636D01*
X0066011Y0069636D02*
X0066011Y0075636D01*
X0076011Y0075636D02*
X0076011Y0069636D01*
X0086011Y0069636D02*
X0086011Y0075636D01*
X0096011Y0075636D02*
X0096011Y0069636D01*
X0106011Y0069636D02*
X0106011Y0075636D01*
X0116011Y0075636D02*
X0116011Y0069636D01*
X0126011Y0069636D02*
X0126011Y0075636D01*
X0136011Y0075636D02*
X0136011Y0069636D01*
X0146011Y0069636D02*
X0146011Y0075636D01*
X0156011Y0075636D02*
X0156011Y0069636D01*
D12*
X0020223Y0056415D03*
X0020223Y0028856D03*
D13*
X0022192Y0038699D03*
X0022192Y0046573D03*
D14*
X0081011Y0042636D03*
X0091011Y0042636D03*
D15*
X0106011Y0042636D03*
X0136011Y0042636D03*
D16*
X0106011Y0042636D02*
X0106011Y0032636D01*
X0086011Y0012636D01*
X0076011Y0012636D02*
X0061011Y0027636D01*
X0021011Y0027636D01*
X0020223Y0028856D01*
X0061011Y0057636D02*
X0076011Y0042636D01*
X0081011Y0042636D01*
X0061011Y0057636D02*
X0021011Y0057636D01*
X0020223Y0056415D01*
X0046011Y0072636D02*
X0061011Y0057636D01*
X0126011Y0072636D02*
X0177261Y0021386D01*
X0192261Y0021386D01*
X0196011Y0025136D01*
X0189761Y0025136D02*
X0183511Y0025136D01*
X0136011Y0072636D01*
X0146011Y0072636D02*
X0184761Y0033886D01*
X0188511Y0012636D02*
X0207261Y0031386D01*
X0179761Y0048886D02*
X0156011Y0072636D01*
X0156011Y0012636D02*
X0188511Y0012636D01*
D17*
X0189761Y0025136D03*
X0196011Y0025136D03*
X0207261Y0031386D03*
X0184761Y0033886D03*
X0179761Y0048886D03*
D18*
X0182761Y0048788D02*
X0223529Y0048788D01*
X0223532Y0047190D02*
X0182305Y0047190D01*
X0182304Y0047187D02*
X0182761Y0048289D01*
X0182761Y0049483D01*
X0182304Y0050585D01*
X0181460Y0051429D01*
X0180357Y0051886D01*
X0180013Y0051886D01*
X0160811Y0071089D01*
X0160811Y0076591D01*
X0160080Y0078355D01*
X0158730Y0079705D01*
X0156966Y0080436D01*
X0155056Y0080436D01*
X0153292Y0079705D01*
X0151941Y0078355D01*
X0151211Y0076591D01*
X0151211Y0070689D01*
X0150811Y0071089D01*
X0150811Y0076591D01*
X0150080Y0078355D01*
X0148730Y0079705D01*
X0146966Y0080436D01*
X0145056Y0080436D01*
X0143292Y0079705D01*
X0141941Y0078355D01*
X0141211Y0076591D01*
X0141211Y0070689D01*
X0140811Y0071089D01*
X0140811Y0076591D01*
X0140080Y0078355D01*
X0138730Y0079705D01*
X0136966Y0080436D01*
X0135056Y0080436D01*
X0133292Y0079705D01*
X0131941Y0078355D01*
X0131211Y0076591D01*
X0131211Y0070689D01*
X0130811Y0071089D01*
X0130811Y0076591D01*
X0130080Y0078355D01*
X0128730Y0079705D01*
X0126966Y0080436D01*
X0125056Y0080436D01*
X0123292Y0079705D01*
X0121941Y0078355D01*
X0121211Y0076591D01*
X0121211Y0068681D01*
X0121941Y0066917D01*
X0123292Y0065567D01*
X0125056Y0064836D01*
X0126966Y0064836D01*
X0128730Y0065567D01*
X0129278Y0066115D01*
X0176308Y0019086D01*
X0191708Y0019086D01*
X0187558Y0014936D01*
X0160811Y0014936D01*
X0160811Y0016591D01*
X0160080Y0018355D01*
X0158730Y0019705D01*
X0156966Y0020436D01*
X0155056Y0020436D01*
X0153292Y0019705D01*
X0151941Y0018355D01*
X0151211Y0016591D01*
X0151211Y0008681D01*
X0151941Y0006917D01*
X0152616Y0006242D01*
X0149408Y0006245D01*
X0150080Y0006917D01*
X0150811Y0008681D01*
X0150811Y0016591D01*
X0150080Y0018355D01*
X0148730Y0019705D01*
X0146966Y0020436D01*
X0145056Y0020436D01*
X0143292Y0019705D01*
X0141941Y0018355D01*
X0141211Y0016591D01*
X0141211Y0008681D01*
X0141941Y0006917D01*
X0142607Y0006251D01*
X0139417Y0006254D01*
X0140080Y0006917D01*
X0140811Y0008681D01*
X0140811Y0016591D01*
X0140080Y0018355D01*
X0138730Y0019705D01*
X0136966Y0020436D01*
X0135056Y0020436D01*
X0133292Y0019705D01*
X0131941Y0018355D01*
X0131211Y0016591D01*
X0131211Y0008681D01*
X0131941Y0006917D01*
X0132599Y0006260D01*
X0129425Y0006262D01*
X0130080Y0006917D01*
X0130811Y0008681D01*
X0130811Y0016591D01*
X0130080Y0018355D01*
X0128730Y0019705D01*
X0126966Y0020436D01*
X0125056Y0020436D01*
X0123292Y0019705D01*
X0121941Y0018355D01*
X0121211Y0016591D01*
X0121211Y0008681D01*
X0121941Y0006917D01*
X0122590Y0006268D01*
X0119434Y0006271D01*
X0120080Y0006917D01*
X0120811Y0008681D01*
X0120811Y0016591D01*
X0120080Y0018355D01*
X0118730Y0019705D01*
X0116966Y0020436D01*
X0115056Y0020436D01*
X0113292Y0019705D01*
X0111941Y0018355D01*
X0111211Y0016591D01*
X0111211Y0008681D01*
X0111941Y0006917D01*
X0112582Y0006277D01*
X0109443Y0006280D01*
X0110080Y0006917D01*
X0110811Y0008681D01*
X0110811Y0016591D01*
X0110080Y0018355D01*
X0108730Y0019705D01*
X0106966Y0020436D01*
X0105056Y0020436D01*
X0103292Y0019705D01*
X0101941Y0018355D01*
X0101211Y0016591D01*
X0101211Y0008681D01*
X0101941Y0006917D01*
X0102573Y0006285D01*
X0099451Y0006288D01*
X0100080Y0006917D01*
X0100811Y0008681D01*
X0100811Y0016591D01*
X0100080Y0018355D01*
X0098730Y0019705D01*
X0097035Y0020407D01*
X0108311Y0031683D01*
X0108311Y0038713D01*
X0110411Y0040813D01*
X0110411Y0044458D01*
X0107833Y0047036D01*
X0104188Y0047036D01*
X0101611Y0044458D01*
X0101611Y0040813D01*
X0103711Y0038713D01*
X0103711Y0033589D01*
X0089278Y0019156D01*
X0088730Y0019705D01*
X0086966Y0020436D01*
X0085056Y0020436D01*
X0083292Y0019705D01*
X0081941Y0018355D01*
X0081211Y0016591D01*
X0081211Y0008681D01*
X0081941Y0006917D01*
X0082556Y0006303D01*
X0079468Y0006305D01*
X0079672Y0006509D01*
X0080116Y0007120D01*
X0080459Y0007793D01*
X0080693Y0008512D01*
X0080811Y0009258D01*
X0080811Y0012436D01*
X0076211Y0012436D01*
X0076211Y0012836D01*
X0080811Y0012836D01*
X0080811Y0016014D01*
X0080693Y0016760D01*
X0080459Y0017478D01*
X0080116Y0018152D01*
X0079672Y0018763D01*
X0079138Y0019297D01*
X0078526Y0019741D01*
X0077853Y0020084D01*
X0077135Y0020318D01*
X0076388Y0020436D01*
X0076211Y0020436D01*
X0076211Y0012836D01*
X0075811Y0012836D01*
X0075811Y0020436D01*
X0075633Y0020436D01*
X0074887Y0020318D01*
X0074168Y0020084D01*
X0073495Y0019741D01*
X0072884Y0019297D01*
X0072349Y0018763D01*
X0071905Y0018152D01*
X0071562Y0017478D01*
X0071329Y0016760D01*
X0071211Y0016014D01*
X0071211Y0012836D01*
X0075811Y0012836D01*
X0075811Y0012436D01*
X0071211Y0012436D01*
X0071211Y0009258D01*
X0071329Y0008512D01*
X0071562Y0007793D01*
X0071905Y0007120D01*
X0072349Y0006509D01*
X0072547Y0006311D01*
X0069477Y0006314D01*
X0070080Y0006917D01*
X0070811Y0008681D01*
X0070811Y0016591D01*
X0070080Y0018355D01*
X0068730Y0019705D01*
X0066966Y0020436D01*
X0065056Y0020436D01*
X0063292Y0019705D01*
X0061941Y0018355D01*
X0061211Y0016591D01*
X0061211Y0008681D01*
X0061941Y0006917D01*
X0062538Y0006320D01*
X0059486Y0006323D01*
X0060080Y0006917D01*
X0060811Y0008681D01*
X0060811Y0016591D01*
X0060080Y0018355D01*
X0058730Y0019705D01*
X0056966Y0020436D01*
X0055056Y0020436D01*
X0053292Y0019705D01*
X0051941Y0018355D01*
X0051211Y0016591D01*
X0051211Y0008681D01*
X0051941Y0006917D01*
X0052530Y0006329D01*
X0049494Y0006331D01*
X0050080Y0006917D01*
X0050811Y0008681D01*
X0050811Y0016591D01*
X0050080Y0018355D01*
X0048730Y0019705D01*
X0046966Y0020436D01*
X0045056Y0020436D01*
X0043292Y0019705D01*
X0041941Y0018355D01*
X0041211Y0016591D01*
X0041211Y0008681D01*
X0041941Y0006917D01*
X0042521Y0006337D01*
X0037547Y0006342D01*
X0037575Y0017889D01*
X0037577Y0017891D01*
X0037577Y0018635D01*
X0037579Y0019377D01*
X0037577Y0019379D01*
X0037577Y0019382D01*
X0037050Y0019908D01*
X0036527Y0020434D01*
X0036524Y0020434D01*
X0036523Y0020436D01*
X0036299Y0020436D01*
X0036237Y0024608D01*
X0036427Y0024798D01*
X0036664Y0025209D01*
X0036787Y0025667D01*
X0036787Y0028180D01*
X0036185Y0028180D01*
X0036165Y0029533D01*
X0036787Y0029533D01*
X0036787Y0032046D01*
X0036664Y0032504D01*
X0036427Y0032914D01*
X0036111Y0033231D01*
X0036081Y0035278D01*
X0036787Y0035985D01*
X0036787Y0041413D01*
X0035979Y0042221D01*
X0035967Y0043039D01*
X0036787Y0043859D01*
X0036787Y0049287D01*
X0035861Y0050213D01*
X0035839Y0051769D01*
X0036787Y0052717D01*
X0036787Y0055336D01*
X0060058Y0055336D01*
X0075058Y0040336D01*
X0076805Y0040336D01*
X0079105Y0038036D01*
X0082916Y0038036D01*
X0085611Y0040730D01*
X0085611Y0044541D01*
X0082916Y0047236D01*
X0079105Y0047236D01*
X0076884Y0045015D01*
X0063311Y0058589D01*
X0061963Y0059936D01*
X0056971Y0064928D01*
X0057135Y0064954D01*
X0057853Y0065188D01*
X0058526Y0065531D01*
X0059138Y0065975D01*
X0059672Y0066509D01*
X0060116Y0067120D01*
X0060459Y0067793D01*
X0060693Y0068512D01*
X0060811Y0069258D01*
X0060811Y0072436D01*
X0056211Y0072436D01*
X0056211Y0072836D01*
X0060811Y0072836D01*
X0060811Y0076014D01*
X0060693Y0076760D01*
X0060459Y0077478D01*
X0060116Y0078152D01*
X0059672Y0078763D01*
X0059138Y0079297D01*
X0058526Y0079741D01*
X0057853Y0080084D01*
X0057135Y0080318D01*
X0056388Y0080436D01*
X0056211Y0080436D01*
X0056211Y0072836D01*
X0055811Y0072836D01*
X0055811Y0080436D01*
X0055633Y0080436D01*
X0054887Y0080318D01*
X0054168Y0080084D01*
X0053495Y0079741D01*
X0052884Y0079297D01*
X0052349Y0078763D01*
X0051905Y0078152D01*
X0051562Y0077478D01*
X0051329Y0076760D01*
X0051211Y0076014D01*
X0051211Y0072836D01*
X0055811Y0072836D01*
X0055811Y0072436D01*
X0051211Y0072436D01*
X0051211Y0070689D01*
X0050811Y0071089D01*
X0050811Y0076591D01*
X0050080Y0078355D01*
X0048730Y0079705D01*
X0046966Y0080436D01*
X0045056Y0080436D01*
X0043292Y0079705D01*
X0041941Y0078355D01*
X0041211Y0076591D01*
X0041211Y0068681D01*
X0041941Y0066917D01*
X0043292Y0065567D01*
X0045056Y0064836D01*
X0046966Y0064836D01*
X0048730Y0065567D01*
X0049278Y0066115D01*
X0055458Y0059936D01*
X0036787Y0059936D01*
X0036787Y0060114D01*
X0035733Y0061168D01*
X0035701Y0061168D01*
X0035647Y0064827D01*
X0035898Y0064826D01*
X0036637Y0064817D01*
X0036641Y0064822D01*
X0036648Y0064822D01*
X0037175Y0065342D01*
X0037704Y0065859D01*
X0037704Y0065865D01*
X0037709Y0065870D01*
X0037713Y0066610D01*
X0037894Y0081488D01*
X0223460Y0081617D01*
X0223617Y0006181D01*
X0159400Y0006236D01*
X0160080Y0006917D01*
X0160811Y0008681D01*
X0160811Y0010336D01*
X0189463Y0010336D01*
X0190811Y0011683D01*
X0207513Y0028386D01*
X0207857Y0028386D01*
X0208960Y0028843D01*
X0209804Y0029687D01*
X0210261Y0030789D01*
X0210261Y0031983D01*
X0209804Y0033085D01*
X0208960Y0033929D01*
X0207857Y0034386D01*
X0206664Y0034386D01*
X0205561Y0033929D01*
X0204717Y0033085D01*
X0204261Y0031983D01*
X0204261Y0031639D01*
X0198819Y0026196D01*
X0198554Y0026835D01*
X0197710Y0027679D01*
X0196607Y0028136D01*
X0195414Y0028136D01*
X0194311Y0027679D01*
X0193467Y0026835D01*
X0193011Y0025733D01*
X0193011Y0025389D01*
X0192761Y0025139D01*
X0192761Y0025733D01*
X0192304Y0026835D01*
X0191460Y0027679D01*
X0190357Y0028136D01*
X0189164Y0028136D01*
X0188061Y0027679D01*
X0187818Y0027436D01*
X0184463Y0027436D01*
X0147035Y0064865D01*
X0148730Y0065567D01*
X0149278Y0066115D01*
X0181761Y0033633D01*
X0181761Y0033289D01*
X0182217Y0032187D01*
X0183061Y0031343D01*
X0184164Y0030886D01*
X0185357Y0030886D01*
X0186460Y0031343D01*
X0187304Y0032187D01*
X0187761Y0033289D01*
X0187761Y0034483D01*
X0187304Y0035585D01*
X0186460Y0036429D01*
X0185357Y0036886D01*
X0185013Y0036886D01*
X0157035Y0064865D01*
X0158730Y0065567D01*
X0159278Y0066115D01*
X0176761Y0048633D01*
X0176761Y0048289D01*
X0177217Y0047187D01*
X0178061Y0046343D01*
X0179164Y0045886D01*
X0180357Y0045886D01*
X0181460Y0046343D01*
X0182304Y0047187D01*
X0177216Y0047190D02*
X0174710Y0047190D01*
X0176308Y0045591D02*
X0223535Y0045591D01*
X0223539Y0043993D02*
X0177907Y0043993D01*
X0179505Y0042394D02*
X0223542Y0042394D01*
X0223545Y0040796D02*
X0181104Y0040796D01*
X0182702Y0039197D02*
X0223549Y0039197D01*
X0223552Y0037599D02*
X0184301Y0037599D01*
X0186889Y0036000D02*
X0223555Y0036000D01*
X0223559Y0034402D02*
X0187761Y0034402D01*
X0187559Y0032803D02*
X0204601Y0032803D01*
X0203827Y0031205D02*
X0186127Y0031205D01*
X0183394Y0031205D02*
X0180695Y0031205D01*
X0181962Y0032803D02*
X0179096Y0032803D01*
X0177498Y0034402D02*
X0180992Y0034402D01*
X0179394Y0036000D02*
X0175899Y0036000D01*
X0174301Y0037599D02*
X0177795Y0037599D01*
X0176197Y0039197D02*
X0172702Y0039197D01*
X0171104Y0040796D02*
X0174598Y0040796D01*
X0173000Y0042394D02*
X0169505Y0042394D01*
X0167907Y0043993D02*
X0171401Y0043993D01*
X0169803Y0045591D02*
X0166308Y0045591D01*
X0164710Y0047190D02*
X0168204Y0047190D01*
X0166606Y0048788D02*
X0163111Y0048788D01*
X0161513Y0050387D02*
X0165007Y0050387D01*
X0163409Y0051985D02*
X0159914Y0051985D01*
X0158316Y0053584D02*
X0161810Y0053584D01*
X0160212Y0055182D02*
X0156717Y0055182D01*
X0155118Y0056781D02*
X0158613Y0056781D01*
X0157015Y0058379D02*
X0153520Y0058379D01*
X0151921Y0059978D02*
X0155416Y0059978D01*
X0153818Y0061576D02*
X0150323Y0061576D01*
X0148724Y0063175D02*
X0152219Y0063175D01*
X0150621Y0064773D02*
X0147126Y0064773D01*
X0157126Y0064773D02*
X0160621Y0064773D01*
X0162219Y0063175D02*
X0158724Y0063175D01*
X0160323Y0061576D02*
X0163818Y0061576D01*
X0165416Y0059978D02*
X0161921Y0059978D01*
X0163520Y0058379D02*
X0167015Y0058379D01*
X0168613Y0056781D02*
X0165118Y0056781D01*
X0166717Y0055182D02*
X0170212Y0055182D01*
X0171810Y0053584D02*
X0168316Y0053584D01*
X0169914Y0051985D02*
X0173409Y0051985D01*
X0175007Y0050387D02*
X0171513Y0050387D01*
X0173111Y0048788D02*
X0176606Y0048788D01*
X0182386Y0050387D02*
X0223525Y0050387D01*
X0223522Y0051985D02*
X0179914Y0051985D01*
X0178316Y0053584D02*
X0223519Y0053584D01*
X0223515Y0055182D02*
X0176717Y0055182D01*
X0175118Y0056781D02*
X0223512Y0056781D01*
X0223509Y0058379D02*
X0173520Y0058379D01*
X0171921Y0059978D02*
X0223505Y0059978D01*
X0223502Y0061576D02*
X0170323Y0061576D01*
X0168724Y0063175D02*
X0223499Y0063175D01*
X0223495Y0064773D02*
X0167126Y0064773D01*
X0165527Y0066372D02*
X0223492Y0066372D01*
X0223489Y0067970D02*
X0163929Y0067970D01*
X0162330Y0069569D02*
X0223485Y0069569D01*
X0223482Y0071167D02*
X0160811Y0071167D01*
X0160811Y0072766D02*
X0223479Y0072766D01*
X0223475Y0074364D02*
X0160811Y0074364D01*
X0160811Y0075963D02*
X0223472Y0075963D01*
X0223469Y0077561D02*
X0160409Y0077561D01*
X0159275Y0079160D02*
X0223465Y0079160D01*
X0223462Y0080758D02*
X0037885Y0080758D01*
X0037866Y0079160D02*
X0042747Y0079160D01*
X0041613Y0077561D02*
X0037846Y0077561D01*
X0037827Y0075963D02*
X0041211Y0075963D01*
X0041211Y0074364D02*
X0037807Y0074364D01*
X0037788Y0072766D02*
X0041211Y0072766D01*
X0041211Y0071167D02*
X0037768Y0071167D01*
X0037749Y0069569D02*
X0041211Y0069569D01*
X0041505Y0067970D02*
X0037730Y0067970D01*
X0037712Y0066372D02*
X0042487Y0066372D01*
X0035648Y0064773D02*
X0050621Y0064773D01*
X0052219Y0063175D02*
X0035671Y0063175D01*
X0035695Y0061576D02*
X0053818Y0061576D01*
X0055416Y0059978D02*
X0036787Y0059978D01*
X0036787Y0055182D02*
X0060212Y0055182D01*
X0061810Y0053584D02*
X0036787Y0053584D01*
X0036055Y0051985D02*
X0063409Y0051985D01*
X0065007Y0050387D02*
X0035859Y0050387D01*
X0036787Y0048788D02*
X0052849Y0048788D01*
X0053205Y0049144D02*
X0050927Y0046866D01*
X0049694Y0043889D01*
X0049694Y0040667D01*
X0050927Y0037690D01*
X0053205Y0035412D01*
X0056182Y0034179D01*
X0059404Y0034179D01*
X0062381Y0035412D01*
X0064659Y0037690D01*
X0065892Y0040667D01*
X0065892Y0043889D01*
X0064659Y0046866D01*
X0062381Y0049144D01*
X0059404Y0050377D01*
X0056182Y0050377D01*
X0053205Y0049144D01*
X0051251Y0047190D02*
X0036787Y0047190D01*
X0036787Y0045591D02*
X0050399Y0045591D01*
X0049737Y0043993D02*
X0036787Y0043993D01*
X0035976Y0042394D02*
X0049694Y0042394D01*
X0049694Y0040796D02*
X0036787Y0040796D01*
X0036787Y0039197D02*
X0050302Y0039197D01*
X0051018Y0037599D02*
X0036787Y0037599D01*
X0036787Y0036000D02*
X0052616Y0036000D01*
X0055643Y0034402D02*
X0036094Y0034402D01*
X0036492Y0032803D02*
X0102925Y0032803D01*
X0103711Y0034402D02*
X0059942Y0034402D01*
X0062969Y0036000D02*
X0103711Y0036000D01*
X0108311Y0036000D02*
X0141252Y0036000D01*
X0140709Y0034689D02*
X0140709Y0031467D01*
X0141942Y0028490D01*
X0144220Y0026212D01*
X0147197Y0024979D01*
X0150419Y0024979D01*
X0153396Y0026212D01*
X0155674Y0028490D01*
X0156907Y0031467D01*
X0156907Y0034689D01*
X0155674Y0037666D01*
X0153396Y0039944D01*
X0150419Y0041177D01*
X0147197Y0041177D01*
X0144220Y0039944D01*
X0141942Y0037666D01*
X0140709Y0034689D01*
X0140709Y0034402D02*
X0108311Y0034402D01*
X0108311Y0032803D02*
X0140709Y0032803D01*
X0140818Y0031205D02*
X0107832Y0031205D01*
X0106234Y0029606D02*
X0141480Y0029606D01*
X0142425Y0028008D02*
X0104635Y0028008D01*
X0103037Y0026409D02*
X0144023Y0026409D01*
X0153593Y0026409D02*
X0168985Y0026409D01*
X0170583Y0024811D02*
X0101438Y0024811D01*
X0099840Y0023212D02*
X0172182Y0023212D01*
X0173780Y0021614D02*
X0098241Y0021614D01*
X0097981Y0020015D02*
X0104040Y0020015D01*
X0107981Y0020015D02*
X0114040Y0020015D01*
X0117981Y0020015D02*
X0124040Y0020015D01*
X0122003Y0018417D02*
X0120018Y0018417D01*
X0120717Y0016818D02*
X0121305Y0016818D01*
X0121211Y0015220D02*
X0120811Y0015220D01*
X0120811Y0013621D02*
X0121211Y0013621D01*
X0121211Y0012022D02*
X0120811Y0012022D01*
X0120811Y0010424D02*
X0121211Y0010424D01*
X0121211Y0008825D02*
X0120811Y0008825D01*
X0120208Y0007227D02*
X0121813Y0007227D01*
X0130208Y0007227D02*
X0131813Y0007227D01*
X0131211Y0008825D02*
X0130811Y0008825D01*
X0130811Y0010424D02*
X0131211Y0010424D01*
X0131211Y0012022D02*
X0130811Y0012022D01*
X0130811Y0013621D02*
X0131211Y0013621D01*
X0131211Y0015220D02*
X0130811Y0015220D01*
X0130717Y0016818D02*
X0131305Y0016818D01*
X0132003Y0018417D02*
X0130018Y0018417D01*
X0127981Y0020015D02*
X0134040Y0020015D01*
X0137981Y0020015D02*
X0144040Y0020015D01*
X0147981Y0020015D02*
X0154040Y0020015D01*
X0157981Y0020015D02*
X0175379Y0020015D01*
X0189440Y0016818D02*
X0160717Y0016818D01*
X0160811Y0015220D02*
X0187842Y0015220D01*
X0192749Y0013621D02*
X0223602Y0013621D01*
X0223605Y0012022D02*
X0191150Y0012022D01*
X0189552Y0010424D02*
X0223609Y0010424D01*
X0223612Y0008825D02*
X0160811Y0008825D01*
X0160208Y0007227D02*
X0223615Y0007227D01*
X0223599Y0015220D02*
X0194347Y0015220D01*
X0195946Y0016818D02*
X0223595Y0016818D01*
X0223592Y0018417D02*
X0197544Y0018417D01*
X0199143Y0020015D02*
X0223589Y0020015D01*
X0223585Y0021614D02*
X0200741Y0021614D01*
X0202340Y0023212D02*
X0223582Y0023212D01*
X0223579Y0024811D02*
X0203938Y0024811D01*
X0205537Y0026409D02*
X0223575Y0026409D01*
X0223572Y0028008D02*
X0207135Y0028008D01*
X0209724Y0029606D02*
X0223569Y0029606D01*
X0223565Y0031205D02*
X0210261Y0031205D01*
X0209921Y0032803D02*
X0223562Y0032803D01*
X0202228Y0029606D02*
X0182293Y0029606D01*
X0183892Y0028008D02*
X0188854Y0028008D01*
X0190667Y0028008D02*
X0195104Y0028008D01*
X0196917Y0028008D02*
X0200630Y0028008D01*
X0199031Y0026409D02*
X0198731Y0026409D01*
X0193291Y0026409D02*
X0192481Y0026409D01*
X0191039Y0018417D02*
X0160018Y0018417D01*
X0152003Y0018417D02*
X0150018Y0018417D01*
X0150717Y0016818D02*
X0151305Y0016818D01*
X0151211Y0015220D02*
X0150811Y0015220D01*
X0150811Y0013621D02*
X0151211Y0013621D01*
X0151211Y0012022D02*
X0150811Y0012022D01*
X0150811Y0010424D02*
X0151211Y0010424D01*
X0151211Y0008825D02*
X0150811Y0008825D01*
X0150208Y0007227D02*
X0151813Y0007227D01*
X0141813Y0007227D02*
X0140208Y0007227D01*
X0140811Y0008825D02*
X0141211Y0008825D01*
X0141211Y0010424D02*
X0140811Y0010424D01*
X0140811Y0012022D02*
X0141211Y0012022D01*
X0141211Y0013621D02*
X0140811Y0013621D01*
X0140811Y0015220D02*
X0141211Y0015220D01*
X0141305Y0016818D02*
X0140717Y0016818D01*
X0140018Y0018417D02*
X0142003Y0018417D01*
X0155192Y0028008D02*
X0167386Y0028008D01*
X0165788Y0029606D02*
X0156137Y0029606D01*
X0156799Y0031205D02*
X0164189Y0031205D01*
X0162591Y0032803D02*
X0156907Y0032803D01*
X0156907Y0034402D02*
X0160992Y0034402D01*
X0159394Y0036000D02*
X0156364Y0036000D01*
X0155702Y0037599D02*
X0157795Y0037599D01*
X0156197Y0039197D02*
X0154143Y0039197D01*
X0154598Y0040796D02*
X0151340Y0040796D01*
X0153000Y0042394D02*
X0140411Y0042394D01*
X0140411Y0042636D02*
X0136011Y0042636D01*
X0140411Y0042636D01*
X0140411Y0044458D01*
X0137833Y0047036D01*
X0136011Y0047036D01*
X0136011Y0042636D01*
X0136011Y0042636D01*
X0136011Y0042636D01*
X0136011Y0038236D01*
X0137833Y0038236D01*
X0140411Y0040813D01*
X0140411Y0042636D01*
X0140411Y0043993D02*
X0151401Y0043993D01*
X0149803Y0045591D02*
X0139278Y0045591D01*
X0136011Y0045591D02*
X0136011Y0045591D01*
X0136011Y0047036D02*
X0134188Y0047036D01*
X0131611Y0044458D01*
X0131611Y0042636D01*
X0136011Y0042636D01*
X0136011Y0042636D01*
X0136011Y0047036D01*
X0132744Y0045591D02*
X0109278Y0045591D01*
X0110411Y0043993D02*
X0131611Y0043993D01*
X0131611Y0042636D02*
X0131611Y0040813D01*
X0134188Y0038236D01*
X0136011Y0038236D01*
X0136011Y0042636D01*
X0136011Y0042636D01*
X0131611Y0042636D01*
X0131611Y0042394D02*
X0110411Y0042394D01*
X0110393Y0040796D02*
X0131628Y0040796D01*
X0133227Y0039197D02*
X0108795Y0039197D01*
X0108311Y0037599D02*
X0141914Y0037599D01*
X0143473Y0039197D02*
X0138795Y0039197D01*
X0136011Y0039197D02*
X0136011Y0039197D01*
X0136011Y0040796D02*
X0136011Y0040796D01*
X0136011Y0042394D02*
X0136011Y0042394D01*
X0136011Y0043993D02*
X0136011Y0043993D01*
X0140393Y0040796D02*
X0146276Y0040796D01*
X0148204Y0047190D02*
X0092962Y0047190D01*
X0092916Y0047236D02*
X0091011Y0047236D01*
X0091011Y0042636D01*
X0095611Y0042636D01*
X0095611Y0044541D01*
X0092916Y0047236D01*
X0091011Y0047236D02*
X0089105Y0047236D01*
X0086411Y0044541D01*
X0086411Y0042636D01*
X0091011Y0042636D01*
X0091011Y0042636D01*
X0091011Y0042636D01*
X0095611Y0042636D01*
X0095611Y0040730D01*
X0092916Y0038036D01*
X0091011Y0038036D01*
X0091011Y0042636D01*
X0091011Y0042636D01*
X0091011Y0047236D01*
X0091011Y0047190D02*
X0091011Y0047190D01*
X0091011Y0045591D02*
X0091011Y0045591D01*
X0089059Y0047190D02*
X0082962Y0047190D01*
X0084561Y0045591D02*
X0087461Y0045591D01*
X0086411Y0043993D02*
X0085611Y0043993D01*
X0086411Y0042636D02*
X0086411Y0040730D01*
X0089105Y0038036D01*
X0091011Y0038036D01*
X0091011Y0042636D01*
X0091011Y0042636D01*
X0086411Y0042636D01*
X0086411Y0042394D02*
X0085611Y0042394D01*
X0085611Y0040796D02*
X0086411Y0040796D01*
X0087944Y0039197D02*
X0084077Y0039197D01*
X0077944Y0039197D02*
X0065283Y0039197D01*
X0065892Y0040796D02*
X0074598Y0040796D01*
X0073000Y0042394D02*
X0065892Y0042394D01*
X0065849Y0043993D02*
X0071401Y0043993D01*
X0069803Y0045591D02*
X0065187Y0045591D01*
X0064335Y0047190D02*
X0068204Y0047190D01*
X0066606Y0048788D02*
X0062736Y0048788D01*
X0069914Y0051985D02*
X0143409Y0051985D01*
X0145007Y0050387D02*
X0071513Y0050387D01*
X0073111Y0048788D02*
X0146606Y0048788D01*
X0141810Y0053584D02*
X0068316Y0053584D01*
X0066717Y0055182D02*
X0140212Y0055182D01*
X0138613Y0056781D02*
X0065118Y0056781D01*
X0063520Y0058379D02*
X0137015Y0058379D01*
X0135416Y0059978D02*
X0061921Y0059978D01*
X0060323Y0061576D02*
X0133818Y0061576D01*
X0132219Y0063175D02*
X0058724Y0063175D01*
X0057126Y0064773D02*
X0130621Y0064773D01*
X0122487Y0066372D02*
X0119535Y0066372D01*
X0120080Y0066917D02*
X0120811Y0068681D01*
X0120811Y0076591D01*
X0120080Y0078355D01*
X0118730Y0079705D01*
X0116966Y0080436D01*
X0115056Y0080436D01*
X0113292Y0079705D01*
X0111941Y0078355D01*
X0111211Y0076591D01*
X0111211Y0068681D01*
X0111941Y0066917D01*
X0113292Y0065567D01*
X0115056Y0064836D01*
X0116966Y0064836D01*
X0118730Y0065567D01*
X0120080Y0066917D01*
X0120516Y0067970D02*
X0121505Y0067970D01*
X0121211Y0069569D02*
X0120811Y0069569D01*
X0120811Y0071167D02*
X0121211Y0071167D01*
X0121211Y0072766D02*
X0120811Y0072766D01*
X0120811Y0074364D02*
X0121211Y0074364D01*
X0121211Y0075963D02*
X0120811Y0075963D01*
X0120409Y0077561D02*
X0121613Y0077561D01*
X0122747Y0079160D02*
X0119275Y0079160D01*
X0112747Y0079160D02*
X0109275Y0079160D01*
X0108730Y0079705D02*
X0106966Y0080436D01*
X0105056Y0080436D01*
X0103292Y0079705D01*
X0101941Y0078355D01*
X0101211Y0076591D01*
X0101211Y0068681D01*
X0101941Y0066917D01*
X0103292Y0065567D01*
X0105056Y0064836D01*
X0106966Y0064836D01*
X0108730Y0065567D01*
X0110080Y0066917D01*
X0110811Y0068681D01*
X0110811Y0076591D01*
X0110080Y0078355D01*
X0108730Y0079705D01*
X0110409Y0077561D02*
X0111613Y0077561D01*
X0111211Y0075963D02*
X0110811Y0075963D01*
X0110811Y0074364D02*
X0111211Y0074364D01*
X0111211Y0072766D02*
X0110811Y0072766D01*
X0110811Y0071167D02*
X0111211Y0071167D01*
X0111211Y0069569D02*
X0110811Y0069569D01*
X0110516Y0067970D02*
X0111505Y0067970D01*
X0112487Y0066372D02*
X0109535Y0066372D01*
X0102487Y0066372D02*
X0099535Y0066372D01*
X0100080Y0066917D02*
X0100811Y0068681D01*
X0100811Y0076591D01*
X0100080Y0078355D01*
X0098730Y0079705D01*
X0096966Y0080436D01*
X0095056Y0080436D01*
X0093292Y0079705D01*
X0091941Y0078355D01*
X0091211Y0076591D01*
X0091211Y0068681D01*
X0091941Y0066917D01*
X0093292Y0065567D01*
X0095056Y0064836D01*
X0096966Y0064836D01*
X0098730Y0065567D01*
X0100080Y0066917D01*
X0100516Y0067970D02*
X0101505Y0067970D01*
X0101211Y0069569D02*
X0100811Y0069569D01*
X0100811Y0071167D02*
X0101211Y0071167D01*
X0101211Y0072766D02*
X0100811Y0072766D01*
X0100811Y0074364D02*
X0101211Y0074364D01*
X0101211Y0075963D02*
X0100811Y0075963D01*
X0100409Y0077561D02*
X0101613Y0077561D01*
X0102747Y0079160D02*
X0099275Y0079160D01*
X0092747Y0079160D02*
X0089275Y0079160D01*
X0088730Y0079705D02*
X0086966Y0080436D01*
X0085056Y0080436D01*
X0083292Y0079705D01*
X0081941Y0078355D01*
X0081211Y0076591D01*
X0081211Y0068681D01*
X0081941Y0066917D01*
X0083292Y0065567D01*
X0085056Y0064836D01*
X0086966Y0064836D01*
X0088730Y0065567D01*
X0090080Y0066917D01*
X0090811Y0068681D01*
X0090811Y0076591D01*
X0090080Y0078355D01*
X0088730Y0079705D01*
X0090409Y0077561D02*
X0091613Y0077561D01*
X0091211Y0075963D02*
X0090811Y0075963D01*
X0090811Y0074364D02*
X0091211Y0074364D01*
X0091211Y0072766D02*
X0090811Y0072766D01*
X0090811Y0071167D02*
X0091211Y0071167D01*
X0091211Y0069569D02*
X0090811Y0069569D01*
X0090516Y0067970D02*
X0091505Y0067970D01*
X0092487Y0066372D02*
X0089535Y0066372D01*
X0082487Y0066372D02*
X0079535Y0066372D01*
X0080080Y0066917D02*
X0080811Y0068681D01*
X0080811Y0076591D01*
X0080080Y0078355D01*
X0078730Y0079705D01*
X0076966Y0080436D01*
X0075056Y0080436D01*
X0073292Y0079705D01*
X0071941Y0078355D01*
X0071211Y0076591D01*
X0071211Y0068681D01*
X0071941Y0066917D01*
X0073292Y0065567D01*
X0075056Y0064836D01*
X0076966Y0064836D01*
X0078730Y0065567D01*
X0080080Y0066917D01*
X0080516Y0067970D02*
X0081505Y0067970D01*
X0081211Y0069569D02*
X0080811Y0069569D01*
X0080811Y0071167D02*
X0081211Y0071167D01*
X0081211Y0072766D02*
X0080811Y0072766D01*
X0080811Y0074364D02*
X0081211Y0074364D01*
X0081211Y0075963D02*
X0080811Y0075963D01*
X0080409Y0077561D02*
X0081613Y0077561D01*
X0082747Y0079160D02*
X0079275Y0079160D01*
X0072747Y0079160D02*
X0069275Y0079160D01*
X0068730Y0079705D02*
X0066966Y0080436D01*
X0065056Y0080436D01*
X0063292Y0079705D01*
X0061941Y0078355D01*
X0061211Y0076591D01*
X0061211Y0068681D01*
X0061941Y0066917D01*
X0063292Y0065567D01*
X0065056Y0064836D01*
X0066966Y0064836D01*
X0068730Y0065567D01*
X0070080Y0066917D01*
X0070811Y0068681D01*
X0070811Y0076591D01*
X0070080Y0078355D01*
X0068730Y0079705D01*
X0070409Y0077561D02*
X0071613Y0077561D01*
X0071211Y0075963D02*
X0070811Y0075963D01*
X0070811Y0074364D02*
X0071211Y0074364D01*
X0071211Y0072766D02*
X0070811Y0072766D01*
X0070811Y0071167D02*
X0071211Y0071167D01*
X0071211Y0069569D02*
X0070811Y0069569D01*
X0070516Y0067970D02*
X0071505Y0067970D01*
X0072487Y0066372D02*
X0069535Y0066372D01*
X0062487Y0066372D02*
X0059535Y0066372D01*
X0060517Y0067970D02*
X0061505Y0067970D01*
X0061211Y0069569D02*
X0060811Y0069569D01*
X0060811Y0071167D02*
X0061211Y0071167D01*
X0061211Y0072766D02*
X0056211Y0072766D01*
X0055811Y0072766D02*
X0050811Y0072766D01*
X0050811Y0074364D02*
X0051211Y0074364D01*
X0051211Y0075963D02*
X0050811Y0075963D01*
X0050409Y0077561D02*
X0051605Y0077561D01*
X0052747Y0079160D02*
X0049275Y0079160D01*
X0055811Y0079160D02*
X0056211Y0079160D01*
X0059275Y0079160D02*
X0062747Y0079160D01*
X0061613Y0077561D02*
X0060417Y0077561D01*
X0056211Y0077561D02*
X0055811Y0077561D01*
X0055811Y0075963D02*
X0056211Y0075963D01*
X0056211Y0074364D02*
X0055811Y0074364D01*
X0060811Y0074364D02*
X0061211Y0074364D01*
X0061211Y0075963D02*
X0060811Y0075963D01*
X0051211Y0071167D02*
X0050811Y0071167D01*
X0074710Y0047190D02*
X0079059Y0047190D01*
X0077461Y0045591D02*
X0076308Y0045591D01*
X0091011Y0043993D02*
X0091011Y0043993D01*
X0091011Y0042394D02*
X0091011Y0042394D01*
X0091011Y0040796D02*
X0091011Y0040796D01*
X0091011Y0039197D02*
X0091011Y0039197D01*
X0094077Y0039197D02*
X0103227Y0039197D01*
X0103711Y0037599D02*
X0064568Y0037599D01*
X0036787Y0031205D02*
X0101327Y0031205D01*
X0099728Y0029606D02*
X0036787Y0029606D01*
X0036787Y0028008D02*
X0098130Y0028008D01*
X0096531Y0026409D02*
X0036787Y0026409D01*
X0036434Y0024811D02*
X0094933Y0024811D01*
X0093334Y0023212D02*
X0036258Y0023212D01*
X0036281Y0021614D02*
X0091736Y0021614D01*
X0090137Y0020015D02*
X0087981Y0020015D01*
X0084040Y0020015D02*
X0077989Y0020015D01*
X0076211Y0020015D02*
X0075811Y0020015D01*
X0074032Y0020015D02*
X0067981Y0020015D01*
X0064040Y0020015D02*
X0057981Y0020015D01*
X0054040Y0020015D02*
X0047981Y0020015D01*
X0050018Y0018417D02*
X0052003Y0018417D01*
X0051305Y0016818D02*
X0050717Y0016818D01*
X0050811Y0015220D02*
X0051211Y0015220D01*
X0051211Y0013621D02*
X0050811Y0013621D01*
X0050811Y0012022D02*
X0051211Y0012022D01*
X0051211Y0010424D02*
X0050811Y0010424D01*
X0050811Y0008825D02*
X0051211Y0008825D01*
X0051813Y0007227D02*
X0050208Y0007227D01*
X0041813Y0007227D02*
X0037549Y0007227D01*
X0037553Y0008825D02*
X0041211Y0008825D01*
X0041211Y0010424D02*
X0037557Y0010424D01*
X0037561Y0012022D02*
X0041211Y0012022D01*
X0041211Y0013621D02*
X0037565Y0013621D01*
X0037569Y0015220D02*
X0041211Y0015220D01*
X0041305Y0016818D02*
X0037573Y0016818D01*
X0037577Y0018417D02*
X0042003Y0018417D01*
X0044040Y0020015D02*
X0036944Y0020015D01*
X0060018Y0018417D02*
X0062003Y0018417D01*
X0061305Y0016818D02*
X0060717Y0016818D01*
X0060811Y0015220D02*
X0061211Y0015220D01*
X0061211Y0013621D02*
X0060811Y0013621D01*
X0060811Y0012022D02*
X0061211Y0012022D01*
X0061211Y0010424D02*
X0060811Y0010424D01*
X0060811Y0008825D02*
X0061211Y0008825D01*
X0061813Y0007227D02*
X0060208Y0007227D01*
X0070208Y0007227D02*
X0071851Y0007227D01*
X0071279Y0008825D02*
X0070811Y0008825D01*
X0070811Y0010424D02*
X0071211Y0010424D01*
X0071211Y0012022D02*
X0070811Y0012022D01*
X0070811Y0013621D02*
X0071211Y0013621D01*
X0071211Y0015220D02*
X0070811Y0015220D01*
X0070717Y0016818D02*
X0071348Y0016818D01*
X0072098Y0018417D02*
X0070018Y0018417D01*
X0075811Y0018417D02*
X0076211Y0018417D01*
X0076211Y0016818D02*
X0075811Y0016818D01*
X0075811Y0015220D02*
X0076211Y0015220D01*
X0076211Y0013621D02*
X0075811Y0013621D01*
X0080811Y0013621D02*
X0081211Y0013621D01*
X0081211Y0012022D02*
X0080811Y0012022D01*
X0080811Y0010424D02*
X0081211Y0010424D01*
X0081211Y0008825D02*
X0080742Y0008825D01*
X0080170Y0007227D02*
X0081813Y0007227D01*
X0100208Y0007227D02*
X0101813Y0007227D01*
X0101211Y0008825D02*
X0100811Y0008825D01*
X0100811Y0010424D02*
X0101211Y0010424D01*
X0101211Y0012022D02*
X0100811Y0012022D01*
X0100811Y0013621D02*
X0101211Y0013621D01*
X0101211Y0015220D02*
X0100811Y0015220D01*
X0100717Y0016818D02*
X0101305Y0016818D01*
X0102003Y0018417D02*
X0100018Y0018417D01*
X0110018Y0018417D02*
X0112003Y0018417D01*
X0111305Y0016818D02*
X0110717Y0016818D01*
X0110811Y0015220D02*
X0111211Y0015220D01*
X0111211Y0013621D02*
X0110811Y0013621D01*
X0110811Y0012022D02*
X0111211Y0012022D01*
X0111211Y0010424D02*
X0110811Y0010424D01*
X0110811Y0008825D02*
X0111211Y0008825D01*
X0111813Y0007227D02*
X0110208Y0007227D01*
X0081211Y0015220D02*
X0080811Y0015220D01*
X0080674Y0016818D02*
X0081305Y0016818D01*
X0082003Y0018417D02*
X0079924Y0018417D01*
X0095611Y0040796D02*
X0101628Y0040796D01*
X0101611Y0042394D02*
X0095611Y0042394D01*
X0095611Y0043993D02*
X0101611Y0043993D01*
X0102744Y0045591D02*
X0094561Y0045591D01*
X0130811Y0071167D02*
X0131211Y0071167D01*
X0131211Y0072766D02*
X0130811Y0072766D01*
X0130811Y0074364D02*
X0131211Y0074364D01*
X0131211Y0075963D02*
X0130811Y0075963D01*
X0130409Y0077561D02*
X0131613Y0077561D01*
X0132747Y0079160D02*
X0129275Y0079160D01*
X0139275Y0079160D02*
X0142747Y0079160D01*
X0141613Y0077561D02*
X0140409Y0077561D01*
X0140811Y0075963D02*
X0141211Y0075963D01*
X0141211Y0074364D02*
X0140811Y0074364D01*
X0140811Y0072766D02*
X0141211Y0072766D01*
X0141211Y0071167D02*
X0140811Y0071167D01*
X0150811Y0071167D02*
X0151211Y0071167D01*
X0151211Y0072766D02*
X0150811Y0072766D01*
X0150811Y0074364D02*
X0151211Y0074364D01*
X0151211Y0075963D02*
X0150811Y0075963D01*
X0150409Y0077561D02*
X0151613Y0077561D01*
X0152747Y0079160D02*
X0149275Y0079160D01*
M02*
